<?xml version="1.0" encoding="utf-8"?>
<!-- Generator: Adobe Illustrator 21.1.0, SVG Export Plug-In . SVG Version: 6.00 Build 0)  -->
<svg version="1.1"
	 id="svg2" inkscape:output_extension="org.inkscape.output.svg.inkscape" inkscape:version="0.46" sodipodi:docname="Comparative_nuclear_fireball_sizes3.svg" sodipodi:version="0.32" xmlns:cc="http://creativecommons.org/ns#" xmlns:dc="http://purl.org/dc/elements/1.1/" xmlns:inkscape="http://www.inkscape.org/namespaces/inkscape" xmlns:rdf="http://www.w3.org/1999/02/22-rdf-syntax-ns#" xmlns:sodipodi="http://sodipodi.sourceforge.net/DTD/sodipodi-0.dtd" xmlns:svg="http://www.w3.org/2000/svg"
	 xmlns="http://www.w3.org/2000/svg" xmlns:xlink="http://www.w3.org/1999/xlink" x="0px" y="0px" viewBox="0 0 781 804"
	 style="enable-background:new 0 0 781 804;" xml:space="preserve">
<style type="text/css">
	.st0{fill:#FF0000;stroke:#000000;stroke-width:3;stroke-linecap:round;}
	.st1{fill:#FF9201;stroke:#000000;stroke-width:3;stroke-linecap:round;}
	.st2{fill:#01FF19;stroke:#000000;stroke-width:3;stroke-linecap:round;}
	.st3{fill:#0198FF;stroke:#000000;stroke-width:3;stroke-linecap:round;}
	.st4{fill:#FF01DA;stroke:#000000;stroke-width:3;stroke-linecap:round;}
	.st5{fill:none;}
	.st6{fill:#FFFFFF;stroke:#000000;stroke-width:3;stroke-linecap:round;}
</style>
<defs>
	
	
		<inkscape:perspective  id="perspective25" inkscape:persp3d-origin="390.5 : 268 : 1" inkscape:vp_x="0 : 402 : 1" inkscape:vp_y="0 : 1000 : 0" inkscape:vp_z="781 : 402 : 1" sodipodi:type="inkscape:persp3d">
		</inkscape:perspective>
</defs>
<sodipodi:namedview  bordercolor="#666666" borderopacity="1.0" id="base" inkscape:current-layer="layer2" inkscape:cx="469.886" inkscape:cy="431.45726" inkscape:document-units="px" inkscape:guide-bbox="true" inkscape:pageopacity="0.0" inkscape:pageshadow="2" inkscape:window-height="853" inkscape:window-width="1440" inkscape:window-x="-4" inkscape:window-y="-4" inkscape:zoom="0.70710678" pagecolor="#ffffff" showgrid="false" showguides="true">
	</sodipodi:namedview>
<g id="layer1" inkscape:groupmode="layer" inkscape:label="Layer 1">
</g>
<path id="path2241" class="st0" d="M693.2,244.6c96.7,164.7,41.6,376.8-123.1,473.6S193.3,759.8,96.5,595.1S54.9,218.3,219.6,121.5
	S596.5,79.9,693.2,244.6z"/>
<path id="path2243" class="st1" d="M602.3,418.7c0,117.1-95,212.1-212.1,212.1s-212.1-95-212.1-212.1s95-212.1,212.1-212.1
	S602.3,301.6,602.3,418.7z"/>
<path id="path2247" class="st2" d="M459.2,418.7c0,38.1-30.9,69-69,69s-69-30.9-69-69s30.9-69,69-69S459.2,380.6,459.2,418.7z"/>
<path id="path2249" class="st3" d="M434.9,418.7c0,24.7-20,44.7-44.7,44.7s-44.7-20-44.7-44.7s20-44.7,44.7-44.7
	S434.9,394,434.9,418.7z"/>
<path id="path2251" class="st4" d="M401.4,418.7c0,6.2-5,11.2-11.2,11.2s-11.2-5-11.2-11.2s5-11.2,11.2-11.2
	S401.4,412.5,401.4,418.7z"/>
<g>
	<path d="M178.9,103.9l-7.3,4.8l-1.7-2.6l17.5-11.6l1.7,2.6l-7.3,4.8l11.8,17.8l-2.9,1.9L178.9,103.9z"/>
	<path d="M196.3,111.5l2.8-1.7c1.2,1.6,3.1,1.6,4.9,0.5l0.2-0.1c1.6-0.9,2.3-2.4,1.6-3.6c-0.6-1-1.5-1.3-3.2-0.7l-2.4,0.9
		c-2.7,1-5.4,0.9-7-1.6c-1.8-3-0.1-6.2,2.9-8c3.9-2.4,7.2-1.5,8.9,1.4l-2.8,1.7c-1-1.3-2.6-1.9-4.5-0.8l-0.2,0.1
		c-1.7,1-2.2,2.5-1.6,3.6c0.5,0.9,1.6,1.3,3.3,0.6l2.7-1c2.5-0.9,5.1-0.8,6.8,1.9c1.6,2.7,0.3,6-3.2,8.1
		C201.5,115.2,198.2,114.3,196.3,111.5z"/>
	<path d="M223.8,101.9c-0.6-0.7-1.4-2.2-1.5-2.4c0.1,1.7-1,4.1-3.4,5.4c-2.9,1.6-6.1,0.8-7.5-1.8c-1.9-3.5,0.6-6.2,3-7.8l4.1-2.6
		l-0.3-0.5c-1.2-2.2-3.1-2.7-5-1.7l-0.2,0.1c-1.6,0.9-2.6,2.4-1.9,4l-2.9,1.6c-1.3-2.9,0.2-6.3,3.6-8.1c4.1-2.2,7.7-0.7,9.4,2.5
		l3.5,6.5c0.5,0.9,1.2,2.3,2,3.3L223.8,101.9z M220.5,96.6l-0.8-1.6l-3.7,2.4c-1.7,1.1-2.5,2.7-1.8,4.1c0.7,1.3,2.2,1.7,3.7,0.9
		l0.2-0.1C220,101.2,221.5,98.4,220.5,96.6z"/>
	<path d="M223.4,82.5l2.8-1.4l1.7,3.5c-0.5-2.7,0.8-4.8,2.8-5.8l1.4-0.7l1.4,2.9l-1.3,0.6c-2.8,1.4-3.7,4.1-2.1,7.3l3.9,8l-3,1.4
		L223.4,82.5z"/>
	<path d="M241,66.6l9.9-3.9c3.6-1.4,7.4-0.3,8.9,3.4c1,2.6,0.2,5-1.6,6.7c2.7-0.6,5.2,0.7,6.3,3.7c1.5,3.8-0.6,7.4-4.2,8.8
		l-10.2,4.1L241,66.6z M254.4,72.6c2.3-0.9,3.2-2.8,2.4-4.9c-0.8-2.1-2.8-2.8-5.1-1.9l-6.2,2.5l2.7,6.8L254.4,72.6z M258.5,82.6
		c2.4-1,3.5-2.9,2.6-5.2c-0.9-2.3-3.1-2.9-5.5-2l-6.3,2.5l2.8,7.2L258.5,82.6z"/>
	<path d="M267.2,73.3c-1.7-5.2,0.6-9.8,5.1-11.3s9.1,0.9,10.8,6c1.7,5.2-0.6,9.8-5.1,11.3S268.9,78.5,267.2,73.3z M277.3,76.6
		c2.7-0.9,4-3.7,2.7-7.5s-4-5.3-6.7-4.4l-0.3,0.1c-2.7,0.9-4,3.7-2.7,7.5s4,5.3,6.7,4.4L277.3,76.6z"/>
	<path d="M285.1,58.2l3.2-0.8l0.6,2.4c0.6-1.8,2-3.4,4.4-4s4.7-0.2,6.4,1.7c0.7-2.7,2.7-4,4.8-4.6c3.9-1,6.7,0.8,7.6,4.4l2.9,11.4
		l-3.2,0.8l-2.7-10.7c-0.6-2.4-2-3.6-4.4-3l-0.3,0.1c-2.1,0.5-3.8,2.9-3,6.2l2.4,9.5l-3.2,0.8l-2.7-10.7c-0.6-2.4-2-3.6-4.4-3
		l-0.3,0.1c-2.1,0.5-3.8,2.9-3,6.2l2.4,9.5l-3.2,0.8L285.1,58.2z"/>
	<path d="M322.5,64.9l0.4,2.4l-3.3,0.6l-4.3-24.1l3.3-0.6l1.7,9.3c0.6-1.7,2.4-3.3,4.9-3.7c4.3-0.8,8.3,1.9,9.3,7.6
		s-1.5,9.5-5.8,10.3C326.2,67.1,323.6,66.3,322.5,64.9z M327.6,64c2.6-0.5,4.3-2.9,3.6-7c-0.7-4.1-3.2-5.8-5.8-5.4h-0.3
		c-2.4,0.4-4.5,2.9-3.8,7.1c0.7,4.1,3.5,5.8,6,5.3L327.6,64z"/>
	<path d="M350.1,63.2c-0.3-0.8-0.5-2.6-0.5-2.8c-0.5,1.6-2.4,3.5-5.2,3.8c-3.3,0.4-6-1.5-6.4-4.4c-0.5-4,2.9-5.6,5.7-6.2l4.7-1
		l-0.1-0.6c-0.3-2.4-1.9-3.7-4.1-3.4h-0.3c-1.8,0.2-3.3,1.3-3.3,3l-3.3,0.4c-0.2-3.2,2.4-5.8,6.4-6.2c4.6-0.6,7.4,2.2,7.9,5.7
		l0.9,7.3c0.1,1,0.3,2.6,0.6,3.8L350.1,63.2z M349,57l-0.2-1.8l-4.3,0.9c-2,0.4-3.3,1.6-3.1,3.2c0.2,1.4,1.5,2.4,3.1,2.2h0.3
		C346.9,61.1,349.3,59.1,349,57z"/>
	<path d="M360.7,50l15.7-0.9l0.2,3L360.9,53L360.7,50z"/>
	<path d="M401.3,53.2c0,4.8-3.8,8.2-8.6,8.2c-4.5,0-8.3-2.4-8.6-6.9h3.4c0.3,2.5,2.5,3.9,5,3.9h0.4c2.9,0,5-2.1,5-5
		c0-2.7-2.1-4.7-4.8-4.7h-0.3c-1.6,0-3.4,0.8-4.4,2.3H385l3.1-14.5l13.1,0.1v3.2l-10.6-0.1l-1.8,7.9c1.3-1.3,3.2-1.9,4.9-1.9
		C398.2,45.7,401.3,49,401.3,53.2z"/>
	<path d="M405.5,49c0.6-8.2,4.4-12.3,10.5-11.9c6,0.4,9.3,5,8.7,13.2c-0.6,8.2-4.4,12.3-10.5,11.9C408.2,61.8,405,57.2,405.5,49z
		 M414.7,59.2c2.6,0.2,6.1-1.7,6.7-9.2c0.5-7.5-2.7-9.8-5.4-10h-0.3c-2.6-0.2-6.1,1.7-6.7,9.2c-0.5,7.5,2.7,9.8,5.4,10H414.7z"/>
	<path d="M463.1,43.3l-3.8,24.2l-3.5-0.5l3.4-21.3l-10.5,20.1l-4.4-0.7l-3.9-22.3L436.9,64l-3.5-0.5l3.8-24.2l5.7,0.9l3.9,22.1
		l10.4-19.8L463.1,43.3z"/>
	<path d="M467.1,65.4l2.4-10.5l-3.8-0.8l0.6-2.8l3.8,0.8l1.2-5.5l3.2,0.7l-1.2,5.5l4.1,0.9l-0.6,2.8l-4.1-0.9l-2.2,10
		c-0.2,1,0,1.4,1.1,1.7l3.2,0.7l-0.7,2.9L470,70C467.6,69.5,466.5,67.8,467.1,65.4z"/>
	<path d="M483.8,60.9l15.2,4.3l-0.8,2.9L483,63.8L483.8,60.9z"/>
	<path d="M519.3,81.6l-1.1,3L502.7,79l1.2-3.5l10-4.4c2.7-1.2,5.9-2,6.9-4.9c0.8-2.2-0.5-4.1-2.6-4.9l-0.3-0.1
		c-2.5-0.9-5,0.4-5.9,2.9l-3.3-1.2c1.6-4.4,5.9-6,10.3-4.5c4,1.4,6.5,4.8,5.1,8.8c-1.3,3.7-4.9,5.1-8.5,6.7l-8.2,3.5L519.3,81.6z"/>
	<path d="M523.4,82.2l3.9,1.6l-1.6,3.9l-3.9-1.6L523.4,82.2z"/>
	<path d="M531.8,83.1l3.1,1.4c-0.5,2.4,0.6,4.4,3,5.5l0.3,0.1c2.4,1.1,5,0.5,6-1.7c1-2.3,0-4.5-2.4-5.6l-1.9-0.9l1.2-2.7l1.9,0.9
		c2.3,1,4.7,0,5.6-2c1-2.3-0.1-4.5-2.5-5.5l-0.3-0.1c-2.1-1-4.6-0.3-5.7,1.6l-3-1.4c1.8-3.5,6.2-4.7,10.3-2.9c4,1.8,6.1,5.9,4.6,9.2
		c-1.3,2.9-3.8,4-6.3,3.8c2,1.5,3,4.1,1.6,7.2c-1.6,3.6-6,4.8-10.4,2.8C532.5,90.8,530.5,87.1,531.8,83.1z"/>
	<path d="M563.7,96.4l-3.2,0.9l-2.8,5.2l-2.9-1.6l11.6-21.6l2.9,1.6l-6.9,12.8l10.4-3l3.8,2.1l-9.7,2.7l1.7,12.9l-3.6-1.9
		L563.7,96.4z"/>
	<path d="M580.1,94.8l2.8,1.8l-1.3,2.1c1.7-0.8,3.9-0.9,5.9,0.4c2.1,1.3,3.4,3.3,3.1,5.8c2.4-1.3,4.8-0.8,6.6,0.3
		c3.4,2.2,4,5.4,2,8.5l-6.3,9.9l-2.8-1.8l5.9-9.3c1.3-2.1,1.3-4-0.8-5.3l-0.2-0.1c-1.8-1.1-4.8-0.7-6.5,2.1l-5.2,8.3l-2.8-1.8
		l5.9-9.3c1.3-2.1,1.3-4-0.8-5.3l-0.2-0.1c-1.8-1.1-4.8-0.7-6.5,2.1l-5.2,8.3l-2.8-1.8L580.1,94.8z"/>
</g>
<g>
	<path d="M187.6,290.1c-5.9-4.1-7.8-10.8-3.7-16.7c3-4.3,8-6.1,12.2-3.4l-2,2.9c-2.7-1.6-5.7-0.4-7.5,2.2l-0.2,0.3
		c-2.9,4.2-1.1,8.9,3.2,11.9s9.3,3.1,12.3-1l0.2-0.3c1.8-2.6,1.9-5.9-0.5-7.8l2-2.9c3.9,3,4,8.3,1,12.6
		C200.4,293.8,193.4,294.2,187.6,290.1z"/>
	<path d="M218.9,268.9c-0.8-0.4-2.1-1.6-2.2-1.7c0.7,1.6,0.6,4.2-1.2,6.3c-2.2,2.5-5.4,3-7.7,1.1c-3-2.6-1.7-6,0-8.4l2.8-3.9
		l-0.4-0.4c-1.9-1.6-3.8-1.4-5.3,0.3l-0.2,0.2c-1.2,1.4-1.5,3.2-0.3,4.4l-2.2,2.5c-2.3-2.2-2.1-5.9,0.4-8.9c3-3.5,6.9-3.4,9.7-1.1
		l5.6,4.8c0.8,0.7,2,1.7,3,2.4L218.9,268.9z M213.9,265.1l-1.4-1.2l-2.6,3.6c-1.2,1.7-1.4,3.4-0.2,4.5c1.1,0.9,2.7,0.7,3.8-0.5
		l0.2-0.2C215.1,269.6,215.5,266.5,213.9,265.1z"/>
	<path d="M219.4,260.2l2.3-2.4c1.5,1.2,3.4,0.8,4.8-0.7l0.2-0.2c1.3-1.3,1.7-2.9,0.7-3.9c-0.8-0.8-1.8-0.9-3.3,0.1l-2.1,1.5
		c-2.4,1.6-5,2.2-7.2,0.1c-2.5-2.5-1.6-6,0.8-8.5c3.2-3.3,6.6-3.2,9-0.9l-2.3,2.4c-1.2-1-3-1.2-4.5,0.3l-0.2,0.2
		c-1.4,1.4-1.5,3-0.6,3.8c0.7,0.7,1.8,0.8,3.3-0.2l2.3-1.6c2.2-1.5,4.8-2.1,7,0.2c2.2,2.2,1.7,5.7-1.1,8.6
		C225.3,262.5,221.9,262.4,219.4,260.2z"/>
	<path d="M234.9,247.3l-7.2-8l-2.9,2.6l-1.9-2.1l2.9-2.6L222,233l2.5-2.2l3.8,4.2l3.1-2.8l1.9,2.1l-3.1,2.8l6.8,7.6
		c0.7,0.8,1.2,0.8,2,0.1l2.5-2.2l2,2.2l-3.1,2.8C238.5,249.2,236.5,249.1,234.9,247.3z"/>
	<path d="M230.7,223.7l2.6-2.1l15.4,19.1l-2.6,2.1L230.7,223.7z"/>
	<path d="M246.5,231c-3.5-4.9-2-9.7,1.4-12.1c3.7-2.6,7.9-1.8,10.5,1.9l1.1,1.6l-10,7.1c2.5,3.1,5.6,3.1,7.3,1.8l0.2-0.2
		c1.4-1,2.2-2.7,1.4-4.4l2.7-1.9c1.5,3.2,0.2,6.6-2.7,8.7C255,236.2,250.1,236,246.5,231z M255.3,222.2c-1.9-2.4-4-2.3-5.7-1.1
		l-0.2,0.2c-1.5,1.1-2.5,3.1-1.2,6L255.3,222.2z"/>
	<path d="M263.2,200.9l9.4-5.1c3.4-1.8,7.3-1.2,9.2,2.4c1.3,2.5,0.8,5-0.9,6.8c2.6-0.9,5.2,0.1,6.7,2.9c1.9,3.6,0.2,7.4-3.2,9.3
		l-9.7,5.2L263.2,200.9z M277.2,205.3c2.2-1.2,2.9-3.1,1.8-5.1s-3.1-2.5-5.3-1.3l-5.9,3.2l3.5,6.5L277.2,205.3z M282.5,214.8
		c2.3-1.2,3.2-3.3,2-5.5s-3.4-2.6-5.7-1.3l-6,3.2l3.7,6.8L282.5,214.8z"/>
	<path d="M287.5,196.2l2.9-1.3l1.6,3.5c-0.4-2.7,0.9-4.8,3-5.7l1.4-0.6l1.3,2.9l-1.3,0.6c-2.9,1.3-3.8,4-2.4,7.2l3.6,8.1l-3,1.3
		L287.5,196.2z"/>
	<path d="M315.8,203.7c-0.5-0.8-1.1-2.4-1.1-2.6c-0.1,1.7-1.6,3.9-4.2,4.9c-3.1,1.1-6.2-0.1-7.2-2.9c-1.4-3.7,1.6-6.1,4.1-7.3l4.4-2
		l-0.2-0.5c-0.8-2.3-2.6-3.1-4.7-2.4l-0.3,0.1c-1.7,0.6-2.9,2-2.5,3.7l-3.1,1.1c-0.9-3.1,1.1-6.2,4.8-7.5c4.4-1.6,7.7,0.5,8.9,3.8
		l2.5,6.9c0.4,1,0.9,2.5,1.5,3.6L315.8,203.7z M313.3,197.9l-0.6-1.7l-4,1.8c-1.8,0.9-2.9,2.3-2.3,3.8c0.5,1.3,2,2,3.5,1.4l0.3-0.1
		C312.2,202.4,314,199.9,313.3,197.9z"/>
	<path d="M332.7,180.4l-1.6,18.6l-3.9,1.1L316.3,185l3.3-0.9l8.7,12.4l1.1-15.1L332.7,180.4z"/>
	<path d="M336.9,188.4c-1-5.3,1.9-9.6,6.5-10.5s8.9,2,10,7.3c1,5.3-1.9,9.6-6.5,10.5C342.2,196.7,337.9,193.7,336.9,188.4z
		 M346.5,193c2.8-0.5,4.4-3.2,3.7-7.1c-0.8-4-3.3-5.8-6-5.2l-0.3,0.1c-2.8,0.5-4.4,3.2-3.7,7.1c0.8,4,3.3,5.8,6,5.2L346.5,193z"/>
	<path d="M360.8,180.9l15.7-1.4l0.3,3l-15.7,1.4L360.8,180.9z"/>
	<path d="M393,166.8v24.5h-3.4v-19.6l-5.6,5.4v-4.2l6.3-6.1L393,166.8z"/>
	<path d="M414.8,184.6c-0.3,4.8-4.3,7.9-9.1,7.6c-4.5-0.3-8.1-2.9-8.1-7.4l3.4,0.2c0.1,2.5,2.2,4,4.8,4.2h0.3
		c2.9,0.2,5.1-1.8,5.3-4.7c0.2-2.7-1.8-4.8-4.5-5h-0.3c-1.6-0.1-3.4,0.6-4.5,2.1l-3.4-0.2l4-14.3l13.1,0.9l-0.2,3.1l-10.5-0.7
		l-2.3,7.8c1.4-1.2,3.3-1.7,5-1.6C412.3,176.9,415.1,180.4,414.8,184.6z"/>
	<path d="M456.2,175.2l-5.2,23.9l-3.4-0.7l4.5-21l-11.6,19.5l-4.4-0.9l-2.7-22.5l-4.5,20.9l-3.4-0.7l5.2-23.9l5.7,1.2l2.7,22.3
		l11.5-19.2L456.2,175.2z"/>
	<path d="M458.9,197.8l3.3-10.3l-3.7-1.2l0.9-2.7l3.7,1.2l1.7-5.4l3.2,1l-1.7,5.4l4,1.3l-0.9,2.7l-4-1.3l-3.1,9.8
		c-0.3,1-0.1,1.4,0.9,1.8l3.2,1l-0.9,2.8l-4-1.3C459,201.9,458.1,200.2,458.9,197.8z"/>
	<path d="M476.1,194.9l14.5,6.1l-1.2,2.7l-14.5-6.1L476.1,194.9z"/>
	<path d="M511.2,197.6l-11.5,21.7l-3-1.6l9.1-17.3l-7.4,2.2l2-3.7l8.4-2.5L511.2,197.6z"/>
	<path d="M506.4,218.2l3.6,2.1l-2.1,3.6l-3.6-2.1L506.4,218.2z"/>
	<path d="M531.2,229.2l-1.7,2.5l-3.2-2.2l-3.1,4.6l-2.8-1.9l3.1-4.6l-9.9-6.8l1.9-2.8l18.8-6l2.7,1.9l-9,13.2L531.2,229.2z
		 M525.2,225.1l6.4-9.3l-13.6,4.4L525.2,225.1z"/>
	<path d="M543,245.8l-2,2.4l-12.8-10.5l2.4-2.9l10.9-0.8c3-0.2,6.2,0.1,8.1-2.2c1.5-1.8,1-4-0.8-5.5l-0.3-0.2
		c-2.1-1.7-4.8-1.4-6.5,0.7l-2.7-2.2c3-3.6,7.6-3.7,11.2-0.7c3.2,2.7,4.5,6.7,1.8,10c-2.5,3-6.3,3.1-10.2,3.4l-8.9,0.5L543,245.8z"
		/>
	<path d="M563.3,253.4l-6.1-0.1l-5.5,5.2l-2.4-2.5l17.8-16.8l2.4,2.5l-8.8,8.3l17.1,0.4l3.1,3.3l-14-0.3l-3.6,17.2l-3-3.2
		L563.3,253.4z"/>
	<path d="M578.8,261.8l2,2.7l-2,1.5c1.9-0.1,3.9,0.6,5.4,2.5c1.5,2,2,4.3,0.8,6.6c2.8-0.4,4.8,1,6.1,2.7c2.4,3.2,1.8,6.5-1.1,8.7
		l-9.4,7l-2-2.7l8.8-6.6c2-1.5,2.6-3.2,1.1-5.2l-0.2-0.2c-1.3-1.7-4.2-2.4-6.8-0.4l-7.9,5.9l-2-2.7l8.8-6.6c2-1.5,2.6-3.2,1.1-5.2
		l-0.2-0.2c-1.3-1.7-4.2-2.4-6.8-0.4l-7.9,5.9l-2-2.7L578.8,261.8z"/>
</g>
<path id="path2196" class="st5" d="M252.2,408.5c5.6-76.2,72-133.5,148.2-127.9s133.5,72,127.9,148.2
	c-5.6,76.2-72,133.5-148.2,127.9S246.6,484.7,252.2,408.5z"/>
<rect id="rect2394" x="22.9" y="518.4" class="st6" width="735.2" height="162"/>
<rect id="rect2381" x="53.6" y="541.4" class="st2" width="29.7" height="29.7"/>
<rect id="rect2383" x="53.6" y="585.4" class="st3" width="29.7" height="29.7"/>
<rect id="rect2385" x="53.6" y="629.4" class="st4" width="29.7" height="29.7"/>
<g>
	<path d="M116.2,634.6h17.2v3.2h-13.7v7.9h11.9v3.2h-11.9v10.3h-3.5C116.2,659.2,116.2,634.6,116.2,634.6z"/>
	<path d="M146.7,659.1c-0.2-0.9-0.2-2.6-0.2-2.8c-0.7,1.6-2.8,3.2-5.6,3.2c-3.3,0-5.8-2.2-5.8-5.2c0-4,3.5-5.2,6.4-5.4l4.8-0.4v-0.6
		c0-2.5-1.4-3.9-3.6-3.9h-0.3c-1.8,0-3.4,0.9-3.6,2.6h-3.3c0.2-3.2,3.1-5.4,7.1-5.4c4.7,0,7.1,3.1,7.1,6.7v7.4c0,1.1,0,2.6,0.2,3.9
		L146.7,659.1L146.7,659.1z M146.3,652.8V651l-4.4,0.4c-2,0.2-3.5,1.2-3.5,2.8c0,1.4,1.2,2.5,2.8,2.5h0.3
		C143.7,656.7,146.3,654.9,146.3,652.8z"/>
	<path d="M156.6,655.3v-10.8h-3.9v-2.9h3.9v-5.7h3.3v5.7h4.2v2.9H160v10.3c0,1,0.3,1.4,1.4,1.4h3.3v3h-4.2
		C158,659.1,156.6,657.7,156.6,655.3z"/>
	<path d="M203.4,634.6v24.5h-3.5v-21.5l-7.2,21.5h-4.5l-7.4-21.4v21.4h-3.5v-24.5h5.8l7.3,21.2l7.2-21.2H203.4z"/>
	<path d="M219.6,659.1c-0.2-0.9-0.2-2.6-0.2-2.8c-0.7,1.6-2.8,3.2-5.6,3.2c-3.3,0-5.8-2.2-5.8-5.2c0-4,3.5-5.2,6.4-5.4l4.8-0.4v-0.6
		c0-2.5-1.4-3.9-3.6-3.9h-0.3c-1.8,0-3.4,0.9-3.6,2.6h-3.3c0.2-3.2,3.1-5.4,7.1-5.4c4.7,0,7.1,3.1,7.1,6.7v7.4c0,1.1,0,2.6,0.2,3.9
		L219.6,659.1L219.6,659.1z M219.2,652.8V651l-4.4,0.4c-2,0.2-3.5,1.2-3.5,2.8c0,1.4,1.2,2.5,2.8,2.5h0.3
		C216.6,656.7,219.2,654.9,219.2,652.8z"/>
	<path d="M228,641.6h3.3v2.5c1-1.6,2.8-2.8,5.6-2.8c4,0,6.3,2.5,6.3,6.1v11.7h-3.3v-11c0-2.5-1-4-3.5-4h-0.3c-2.5,0-4.8,1.9-4.8,5.3
		v9.8H228V641.6z"/>
	<path d="M247.4,646.8c0-8.1,2.1-16.3,10-17.3v3c-5.8,1.4-6.6,8.1-6.6,14.3s0.8,12.9,6.6,14.3v3C249.4,663.4,247.4,655,247.4,646.8z
		"/>
	<path d="M280.7,634.6v24.5h-4.9l-11.4-20.3v20.3h-3.5v-24.5h4.9l11.4,20.3v-20.3H280.7z"/>
	<path d="M296.9,659.1c-0.2-0.9-0.2-2.6-0.2-2.8c-0.7,1.6-2.8,3.2-5.6,3.2c-3.3,0-5.8-2.2-5.8-5.2c0-4,3.5-5.2,6.4-5.4l4.8-0.4v-0.6
		c0-2.5-1.4-3.9-3.6-3.9h-0.3c-1.8,0-3.4,0.9-3.6,2.6h-3.3c0.2-3.2,3.1-5.4,7.1-5.4c4.7,0,7.1,3.1,7.1,6.7v7.4c0,1.1,0,2.6,0.2,3.9
		L296.9,659.1L296.9,659.1z M296.5,652.8V651l-4.4,0.4c-2,0.2-3.5,1.2-3.5,2.8c0,1.4,1.2,2.5,2.8,2.5h0.3
		C293.9,656.7,296.5,654.9,296.5,652.8z"/>
	<path d="M303.9,661.4h3.3c0.4,1.8,2.2,2.6,4.6,2.6h0.4c3,0,5.1-1.6,5.1-5.2v-2.5c-0.9,1.4-2.6,2.8-5.3,2.8c-4,0-7.8-2.8-7.8-8.9
		s3.6-8.9,7.8-8.9c2.6,0,4.6,1.4,5.3,2.8v-2.5h3.3v17.5c0,4.4-3.2,7.7-8.6,7.7C307.1,666.8,304.3,664.5,303.9,661.4z M312.4,656.3
		c2.4,0,4.8-2.3,4.8-6.1s-2.2-6.1-4.7-6.1h-0.3c-2.5,0-4.8,1.8-4.8,6.1c0,4.4,2.1,6.1,4.6,6.1H312.4z"/>
	<path d="M336.2,659.1c-0.2-0.9-0.2-2.6-0.2-2.8c-0.7,1.6-2.8,3.2-5.6,3.2c-3.3,0-5.8-2.2-5.8-5.2c0-4,3.5-5.2,6.4-5.4l4.8-0.4v-0.6
		c0-2.5-1.4-3.9-3.6-3.9H332c-1.8,0-3.4,0.9-3.6,2.6H325c0.2-3.2,3.1-5.4,7.1-5.4c4.7,0,7.1,3.1,7.1,6.7v7.4c0,1.1,0,2.6,0.2,3.9
		L336.2,659.1L336.2,659.1z M335.9,652.8V651l-4.4,0.4c-2,0.2-3.5,1.2-3.5,2.8c0,1.4,1.2,2.5,2.8,2.5h0.3
		C333.3,656.7,335.9,654.9,335.9,652.8z"/>
	<path d="M343.3,653.7h3.3c0.2,2,1.8,3,3.9,3h0.3c1.8,0,3.3-0.9,3.3-2.3c0-1.1-0.6-1.9-2.4-2.2l-2.6-0.5c-2.8-0.6-5.1-2-5.1-5
		c0-3.5,3.1-5.4,6.6-5.4c4.6,0,6.9,2.5,6.9,5.8h-3.3c-0.2-1.6-1.3-3-3.4-3h-0.3c-2,0-3.2,1-3.2,2.2c0,1.1,0.7,1.9,2.5,2.2l2.8,0.6
		c2.7,0.5,4.8,2,4.8,5.1s-2.8,5.3-6.9,5.3C345.8,659.5,343.5,657,343.3,653.7z"/>
	<path d="M372.1,659.1c-0.2-0.9-0.2-2.6-0.2-2.8c-0.7,1.6-2.8,3.2-5.6,3.2c-3.3,0-5.8-2.2-5.8-5.2c0-4,3.5-5.2,6.4-5.4l4.8-0.4v-0.6
		c0-2.5-1.4-3.9-3.6-3.9h-0.3c-1.8,0-3.4,0.9-3.6,2.6h-3.3c0.2-3.2,3.1-5.4,7.1-5.4c4.7,0,7.1,3.1,7.1,6.7v7.4c0,1.1,0,2.6,0.2,3.9
		L372.1,659.1L372.1,659.1z M371.7,652.8V651l-4.4,0.4c-2,0.2-3.5,1.2-3.5,2.8c0,1.4,1.2,2.5,2.8,2.5h0.3
		C369.1,656.7,371.7,654.9,371.7,652.8z"/>
	<path d="M386.2,650.8l-2.4,2.3v5.9h-3.3v-24.5h3.3v14.6l7.7-7.6h4.4l-7.3,7l7.6,10.5h-4.1L386.2,650.8z"/>
	<path d="M399,634.6h3.7v3.8H399V634.6z M399.1,641.6h3.3v17.5h-3.3V641.6z"/>
	<path d="M415.4,646.8c0,8.1-2.1,16.3-10,17.3v-3c5.8-1.4,6.6-8.1,6.6-14.3s-0.8-12.9-6.6-14.3v-3
		C413.4,630.3,415.4,638.7,415.4,646.8z"/>
	<path d="M423.1,647h15.8v3h-15.8V647z"/>
	<path d="M454.9,634.6v24.5h-3.4v-19.6l-5.6,5.4v-4.2l6.3-6.1L454.9,634.6L454.9,634.6z"/>
	<path d="M460.5,653c0-2.8,1.8-4.9,4.1-5.8c-2.5-0.6-4.6-3-4.6-6c0-4.1,3.3-6.9,8.2-6.9s8.2,2.8,8.2,6.9c0,3-2.1,5.4-4.6,6
		c2.4,0.9,4.1,3,4.1,5.8c0,3.8-3.2,6.5-7.7,6.5S460.5,656.8,460.5,653z M468.4,645.6c2.6,0,4.6-1.8,4.6-4.2c0-2.5-1.9-4.1-4.6-4.1
		H468c-2.6,0-4.6,1.7-4.6,4.1c0,2.5,1.9,4.2,4.6,4.2H468.4z M468.4,656.5c2.5,0,4.1-1.6,4.1-3.9c0-2.3-1.6-4.1-4.1-4.1H468
		c-2.5,0-4.1,1.8-4.1,4.1s1.6,3.9,4.1,3.9H468.4z"/>
	<path d="M497.7,647.2l-4.3,4.3v7.6H490v-24.5h3.5v12.1l12.1-12.1h4.6l-9.8,10l10,14.5H506L497.7,647.2z"/>
	<path d="M513.8,655.3v-10.8H510v-2.9h3.9v-5.7h3.3v5.7h4.2v2.9h-4.2v10.3c0,1,0.4,1.4,1.4,1.4h3.3v3h-4.2
		C515.2,659.1,513.8,657.7,513.8,655.3z"/>
	<path d="M528.8,647h15.8v3h-15.8V647z"/>
	<path d="M552.5,646.8c0-8.2,3.6-12.6,9.6-12.6s9.6,4.4,9.6,12.6s-3.6,12.6-9.6,12.6S552.5,655.1,552.5,646.8z M562.3,656.5
		c2.6,0,6-2.1,6-9.6s-3.4-9.6-6-9.6H562c-2.6,0-6,2.1-6,9.6s3.4,9.6,6,9.6H562.3z"/>
	<path d="M575.3,654.9h4.2v4.2h-4.2V654.9z"/>
	<path d="M590.2,634.6v24.5h-3.4v-19.6l-5.6,5.4v-4.2l6.3-6.1L590.2,634.6L590.2,634.6z"/>
	<path d="M610.3,650.8l-2.4,2.3v5.9h-3.3v-24.5h3.3v14.6l7.7-7.6h4.4l-7.3,7l7.6,10.5h-4.1L610.3,650.8z"/>
	<path d="M623.2,641.6h3.3v2.5c1.1-1.6,2.8-2.8,5.3-2.8s4.6,1,5.8,3.3c1.4-2.4,3.6-3.3,5.8-3.3c4,0,6.3,2.5,6.3,6.1v11.7h-3.3v-11
		c0-2.5-1-4-3.5-4h-0.3c-2.1,0-4.4,1.9-4.4,5.3v9.8h-3.3v-11c0-2.5-1.1-4-3.5-4h-0.3c-2.1,0-4.4,1.9-4.4,5.3v9.8h-3.3v-17.7H623.2z"
		/>
</g>
<g>
	<path d="M145,590.6l-6,24.5h-4.7l-4.9-20.5l-4.9,20.5h-4.7l-6-24.5h3.6l4.8,20.7l5-20.7h4.6l4.9,20.9l4.6-20.9H145z"/>
	<path d="M148.3,609c0-2.8,1.8-4.9,4.1-5.8c-2.5-0.6-4.6-3-4.6-6c0-4.1,3.3-6.9,8.2-6.9s8.2,2.8,8.2,6.9c0,3-2.1,5.4-4.6,6
		c2.4,0.9,4.1,3,4.1,5.8c0,3.8-3.2,6.5-7.7,6.5S148.3,612.8,148.3,609z M156.1,601.6c2.6,0,4.6-1.8,4.6-4.2c0-2.5-1.9-4.1-4.6-4.1
		h-0.3c-2.6,0-4.6,1.7-4.6,4.1c0,2.5,1.9,4.2,4.6,4.2H156.1z M156.1,612.5c2.5,0,4.1-1.6,4.1-3.8c0-2.3-1.6-4.1-4.1-4.1h-0.3
		c-2.5,0-4.1,1.8-4.1,4.1s1.6,3.8,4.1,3.8H156.1z"/>
	<path d="M168.4,609c0-2.8,1.8-4.9,4.1-5.8c-2.5-0.6-4.6-3-4.6-6c0-4.1,3.3-6.9,8.2-6.9s8.2,2.8,8.2,6.9c0,3-2.1,5.4-4.6,6
		c2.4,0.9,4.1,3,4.1,5.8c0,3.8-3.2,6.5-7.7,6.5S168.4,612.8,168.4,609z M176.3,601.6c2.6,0,4.6-1.8,4.6-4.2c0-2.5-1.9-4.1-4.6-4.1
		H176c-2.6,0-4.6,1.7-4.6,4.1c0,2.5,1.9,4.2,4.6,4.2H176.3z M176.3,612.5c2.5,0,4.1-1.6,4.1-3.8c0-2.3-1.6-4.1-4.1-4.1H176
		c-2.5,0-4.1,1.8-4.1,4.1s1.6,3.8,4.1,3.8H176.3z"/>
	<path d="M187.9,602.8c0-8.1,2.1-16.3,10-17.3v3c-5.8,1.4-6.6,8.1-6.6,14.3s0.8,12.9,6.6,14.3v3C189.9,619.4,187.9,611,187.9,602.8z
		"/>
	<path d="M201.4,590.6h10.3c4.6,0,7.9,2.7,7.9,7.4s-3.3,7.4-7.9,7.4h-6.8v9.7h-3.5V590.6z M211.2,602.3c3.2,0,4.9-1.5,4.9-4.3
		s-1.8-4.3-4.9-4.3h-6.3v8.5L211.2,602.3L211.2,602.3z"/>
	<path d="M221.8,606.3c0-6.1,4-9.1,8.2-9.1c4.6,0,7.4,3.2,7.4,7.7v1.9h-12.3c0.2,4,2.8,5.8,4.9,5.8h0.3c1.7,0,3.4-0.9,3.7-2.7h3.3
		c-0.6,3.5-3.7,5.5-7.3,5.5C225.8,615.5,221.8,612.4,221.8,606.3z M234.1,604.3c-0.1-3-2-4.2-4-4.2h-0.3c-1.8,0-3.9,1.1-4.5,4.2
		H234.1z"/>
	<path d="M252,615.1c-0.2-0.9-0.2-2.6-0.2-2.8c-0.7,1.6-2.8,3.2-5.6,3.2c-3.3,0-5.8-2.2-5.8-5.2c0-4,3.5-5.2,6.4-5.4l4.8-0.4v-0.6
		c0-2.5-1.4-3.9-3.6-3.9h-0.3c-1.8,0-3.4,0.9-3.6,2.6h-3.3c0.2-3.2,3.1-5.4,7.1-5.4c4.7,0,7.1,3.1,7.1,6.7v7.4c0,1,0,2.6,0.2,3.9
		L252,615.1L252,615.1z M251.7,608.8V607l-4.4,0.3c-2,0.2-3.5,1.2-3.5,2.8c0,1.4,1.2,2.5,2.8,2.5h0.3
		C249,612.7,251.7,610.9,251.7,608.8z"/>
	<path d="M259.4,606.4c0-5.1,3-9.1,8.4-9.1c4,0,6.8,2.3,7.2,6.1h-3.3c-0.3-1.9-1.7-3.3-3.7-3.3h-0.3c-3.4,0-4.9,3-4.9,6.3
		s1.6,6.3,4.9,6.3h0.3c2,0,3.4-1.4,3.7-3.3h3.3c-0.4,3.8-3.2,6.1-7.2,6.1C262.4,615.5,259.4,611.5,259.4,606.4z"/>
	<path d="M278,606.3c0-6.1,4-9.1,8.2-9.1c4.6,0,7.4,3.2,7.4,7.7v1.9h-12.3c0.2,4,2.8,5.8,4.9,5.8h0.3c1.7,0,3.4-0.9,3.7-2.7h3.3
		c-0.6,3.5-3.7,5.5-7.3,5.5C281.9,615.5,278,612.4,278,606.3z M290.2,604.3c-0.1-3-2-4.2-4-4.2H286c-1.8,0-3.9,1.1-4.5,4.2H290.2z"
		/>
	<path d="M306,603.2l-4.3,4.3v7.6h-3.5v-24.5h3.5v12.1l12.1-12.1h4.6l-9.8,10l10,14.5h-4.4L306,603.2z"/>
	<path d="M319.2,606.3c0-6.1,4-9.1,8.2-9.1c4.6,0,7.4,3.2,7.4,7.7v1.9h-12.3c0.2,4,2.8,5.8,4.9,5.8h0.3c1.7,0,3.4-0.9,3.7-2.7h3.3
		c-0.6,3.5-3.7,5.5-7.3,5.5C323.1,615.5,319.2,612.4,319.2,606.3z M331.5,604.3c-0.1-3-2-4.2-4-4.2h-0.3c-1.8,0-3.9,1.1-4.5,4.2
		H331.5z"/>
	<path d="M337.9,606.3c0-6.1,4-9.1,8.2-9.1c4.6,0,7.4,3.2,7.4,7.7v1.9h-12.3c0.2,4,2.8,5.8,4.9,5.8h0.3c1.7,0,3.4-0.9,3.7-2.7h3.3
		c-0.6,3.5-3.7,5.5-7.3,5.5C341.8,615.5,337.9,612.4,337.9,606.3z M350.2,604.3c-0.1-3-2-4.2-4-4.2h-0.3c-1.8,0-3.9,1.1-4.5,4.2
		H350.2z"/>
	<path d="M357.7,597.6h3.3v2.5c0.9-1.6,3.3-2.8,5.8-2.8c4.4,0,7.5,3.3,7.5,9.1s-3.5,9.1-7.9,9.1c-2.5,0-4.6-1.2-5.4-2.8v9.5h-3.3
		V597.6z M366.2,612.7c2.7,0,4.8-2.1,4.8-6.3s-2.1-6.3-4.8-6.3H366c-2.5,0-4.9,2.1-4.9,6.3s2.5,6.3,4.9,6.3H366.2z"/>
	<path d="M377.5,606.3c0-6.1,4-9.1,8.2-9.1c4.6,0,7.4,3.2,7.4,7.7v1.9h-12.3c0.2,4,2.8,5.8,4.9,5.8h0.3c1.7,0,3.4-0.9,3.7-2.7h3.3
		c-0.6,3.5-3.7,5.5-7.3,5.5C381.4,615.5,377.5,612.4,377.5,606.3z M389.7,604.3c-0.1-3-2-4.2-4-4.2h-0.3c-1.8,0-3.9,1.1-4.5,4.2
		H389.7z"/>
	<path d="M397.3,597.6h3.2v3.9c0.7-2.6,2.8-4,5.1-4h1.6v3.2h-1.4c-3.2,0-5.1,2.1-5.1,5.6v8.9h-3.3v-17.6H397.3z"/>
	<path d="M416.8,602.8c0,8.1-2.1,16.3-10,17.3v-3c5.8-1.4,6.6-8.1,6.6-14.3s-0.8-12.9-6.6-14.3v-3
		C414.8,586.3,416.8,594.7,416.8,602.8z"/>
	<path d="M424.5,603h15.8v3h-15.8V603z"/>
	<path d="M447.8,608.7h3.4c0.5,2.4,2.3,3.8,4.9,3.8h0.3c2.6,0,4.7-1.6,4.7-4c0-2.6-1.9-4.1-4.4-4.1h-2.1v-2.9h2.1
		c2.6,0,4.3-1.9,4.3-4.1c0-2.5-2-4-4.6-4h-0.3c-2.3,0-4.3,1.6-4.6,3.9h-3.3c0.2-3.9,3.7-6.8,8.2-6.8c4.4,0,7.9,2.9,7.9,6.5
		c0,3.2-1.8,5.2-4.2,6c2.4,0.6,4.4,2.6,4.4,5.9c0,3.9-3.5,6.8-8.3,6.8C451.6,615.5,448.3,612.8,447.8,608.7z"/>
	<path d="M485.2,607.2c0,4.8-3.7,8.2-8.6,8.2c-4.5,0-8.3-2.3-8.6-6.8h3.4c0.3,2.5,2.5,3.8,5,3.8h0.3c2.9,0,5-2.2,5-5.1
		c0-2.7-2.1-4.7-4.8-4.7h-0.3c-1.6,0-3.4,0.8-4.4,2.4h-3.4l3-14.5h13.1v3.2h-10.6l-1.7,7.9c1.3-1.3,3.2-1.9,4.9-1.9
		C482.1,599.8,485.2,603,485.2,607.2z"/>
	<path d="M489,602.8c0-8.2,3.6-12.6,9.6-12.6s9.6,4.4,9.6,12.6c0,8.2-3.6,12.6-9.6,12.6S489,611.1,489,602.8z M498.8,612.5
		c2.6,0,6-2.1,6-9.6c0-7.6-3.4-9.6-6-9.6h-0.3c-2.6,0-6,2.1-6,9.6c0,7.6,3.4,9.6,6,9.6H498.8z"/>
	<path d="M528.3,603.2l-4.3,4.3v7.6h-3.5v-24.5h3.5v12.1l12.1-12.1h4.6l-9.8,10l10,14.5h-4.4L528.3,603.2z"/>
	<path d="M544.4,611.3v-10.8h-3.9v-2.9h3.9v-5.7h3.3v5.7h4.2v2.9h-4.2v10.3c0,1.1,0.4,1.4,1.4,1.4h3.3v3h-4.2
		C545.8,615.1,544.4,613.7,544.4,611.3z"/>
	<path d="M559.4,603h15.8v3h-15.8V603z"/>
	<path d="M583,602.8c0-8.2,3.6-12.6,9.6-12.6s9.6,4.4,9.6,12.6c0,8.2-3.6,12.6-9.6,12.6S583,611.1,583,602.8z M592.8,612.5
		c2.6,0,6-2.1,6-9.6c0-7.6-3.4-9.6-6-9.6h-0.3c-2.6,0-6,2.1-6,9.6c0,7.6,3.4,9.6,6,9.6H592.8z"/>
	<path d="M605.8,610.9h4.2v4.2h-4.2V610.9z"/>
	<path d="M614,608.7h3.4c0.5,2.4,2.3,3.8,4.9,3.8h0.3c2.6,0,4.7-1.6,4.7-4c0-2.6-1.9-4.1-4.4-4.1h-2.1v-2.9h2.1
		c2.6,0,4.3-1.9,4.3-4.1c0-2.5-2-4-4.6-4h-0.3c-2.3,0-4.3,1.6-4.6,3.9h-3.3c0.2-3.9,3.7-6.8,8.2-6.8c4.4,0,7.9,2.9,7.9,6.5
		c0,3.2-1.8,5.2-4.2,6c2.4,0.6,4.4,2.6,4.4,5.9c0,3.9-3.5,6.8-8.3,6.8C617.7,615.5,614.4,612.8,614,608.7z"/>
	<path d="M651.2,612v3.2h-16.6v-3.7l7.9-7.5c2.2-2.1,4.9-3.9,4.9-6.9c0-2.3-1.8-3.7-4.1-3.7H643c-2.7,0-4.6,2-4.6,4.7h-3.5
		c0-4.7,3.5-7.7,8.2-7.7c4.2,0,7.7,2.3,7.7,6.5c0,3.9-2.9,6.4-5.7,9.1l-6.5,6.1L651.2,612L651.2,612z"/>
	<path d="M669.9,606.8l-2.4,2.3v5.9h-3.3v-24.5h3.3v14.6l7.7-7.6h4.4l-7.3,7l7.6,10.5h-4.1L669.9,606.8z"/>
	<path d="M682.8,597.6h3.3v2.5c1.1-1.6,2.8-2.8,5.3-2.8s4.6,1,5.8,3.3c1.4-2.4,3.6-3.3,5.8-3.3c4,0,6.3,2.5,6.3,6.1v11.7H706v-11
		c0-2.5-1-4-3.5-4h-0.3c-2.1,0-4.4,1.9-4.4,5.2v9.8h-3.3v-11c0-2.5-1.1-4-3.5-4h-0.3c-2.1,0-4.4,1.9-4.4,5.2v9.8H683v-17.5H682.8z"
		/>
</g>
<g>
	<path d="M145,540.8l-6,24.5h-4.7l-4.9-20.5l-4.9,20.5h-4.7l-6-24.5h3.6l4.8,20.7l5-20.7h4.6l4.9,20.9l4.6-20.9H145z"/>
	<path d="M164.3,557.4c0,4.8-3.7,8.2-8.6,8.2c-4.5,0-8.3-2.3-8.6-6.8h3.4c0.3,2.5,2.5,3.8,5,3.8h0.4c2.9,0,5-2.2,5-5.1
		c0-2.7-2.1-4.7-4.8-4.7h-0.3c-1.6,0-3.4,0.8-4.4,2.4H148l3-14.5h13.1v3.2h-10.6l-1.7,7.9c1.3-1.3,3.2-1.9,4.9-1.9
		C161.3,550,164.3,553.2,164.3,557.4z"/>
	<path d="M186,552.2c0,7.9-4.8,13.4-10.4,13.4c-4.2,0-7.1-2.3-7.8-6.3h3.4c0.5,2,2,3.3,4.1,3.3h0.4c3.9,0,6.7-3.9,7.1-9.8
		c-1.2,2.5-3.9,4-6.7,4c-4.4,0-7.9-3.2-7.9-8.1c0-5,3.7-8.4,8.6-8.4C182.4,540.4,186,544.7,186,552.2z M182.1,548.7
		c0-2.9-2.4-5.2-5-5.2h-0.4c-2.6,0-4.9,2.1-4.9,5.2c0,3.2,2.3,5.3,4.9,5.3h0.4C179.7,553.9,182.1,551.7,182.1,548.7z"/>
	<path d="M189.7,553c0-8.1,2.1-16.3,10-17.3v3c-5.8,1.4-6.6,8.1-6.6,14.3s0.8,12.9,6.6,14.3v3C191.7,569.6,189.7,561.2,189.7,553z"
		/>
	<path d="M229.3,540.8v24.5h-3.5v-21.5l-7.2,21.5h-4.5l-7.4-21.4v21.4h-3.5v-24.5h5.8l7.3,21.2l7.2-21.2H229.3z"/>
	<path d="M234.9,540.8h3.7v3.8h-3.7V540.8z M235,547.8h3.3v17.5H235V547.8z"/>
	<path d="M243.6,547.8h3.3v2.5c1.1-1.6,2.8-2.8,5.6-2.8c4,0,6.3,2.5,6.3,6.1v11.7h-3.3v-11c0-2.5-1-4-3.5-4h-0.3
		c-2.5,0-4.8,1.9-4.8,5.2v9.8h-3.3V547.8z"/>
	<path d="M263.7,559.3v-11.6h3.3v10.9c0,2.8,1.2,4.2,3.5,4.2h0.3c2.2,0,4.4-2.1,4.4-5.6v-9.5h3.3v17.5h-3.3V562
		c-0.7,1.9-2.6,3.7-5.6,3.7C265.8,565.6,263.7,563,263.7,559.3z"/>
	<path d="M285.7,561.4v-10.8h-3.9v-2.9h3.9V542h3.3v5.7h4.2v2.9H289v10.3c0,1.1,0.4,1.4,1.4,1.4h3.3v3h-4.2
		C287.1,565.3,285.7,563.9,285.7,561.4z"/>
	<path d="M296.1,556.5c0-6.1,4-9.1,8.2-9.1c4.6,0,7.4,3.2,7.4,7.7v1.9h-12.3c0.2,4,2.8,5.8,4.9,5.8h0.3c1.7,0,3.4-0.9,3.7-2.7h3.3
		c-0.6,3.5-3.7,5.5-7.3,5.5C300,565.6,296.1,562.6,296.1,556.5z M308.4,554.4c-0.1-3-2-4.2-4-4.2h-0.3c-1.8,0-3.9,1.1-4.5,4.2H308.4
		z"/>
	<path d="M315.9,547.8h3.3v2.5c1-1.6,2.8-2.8,5.3-2.8s4.6,1,5.8,3.3c1.4-2.4,3.6-3.3,5.8-3.3c4,0,6.3,2.5,6.3,6.1v11.7H339v-11
		c0-2.5-1-4-3.5-4h-0.3c-2.1,0-4.4,1.9-4.4,5.2v9.8h-3.3v-11c0-2.5-1-4-3.5-4h-0.3c-2.1,0-4.4,1.9-4.4,5.2v9.8H316v-17.5H315.9z"/>
	<path d="M357.8,565.3c-0.2-0.9-0.2-2.6-0.2-2.8c-0.7,1.6-2.8,3.2-5.6,3.2c-3.3,0-5.8-2.2-5.8-5.2c0-4,3.5-5.2,6.4-5.4l4.8-0.4v-0.6
		c0-2.4-1.4-3.8-3.6-3.8h-0.3c-1.8,0-3.4,0.9-3.6,2.6h-3.3c0.2-3.2,3.1-5.4,7.1-5.4c4.7,0,7.1,3.1,7.1,6.7v7.4c0,1,0,2.6,0.2,3.8
		L357.8,565.3L357.8,565.3z M357.4,559v-1.8l-4.4,0.4c-2,0.2-3.5,1.2-3.5,2.8c0,1.4,1.2,2.5,2.8,2.5h0.3
		C354.8,562.8,357.4,561.1,357.4,559z"/>
	<path d="M366.2,547.8h3.3v2.5c1.1-1.6,2.8-2.8,5.6-2.8c4,0,6.3,2.5,6.3,6.1v11.7h-3.3v-11c0-2.5-1-4-3.5-4h-0.3
		c-2.5,0-4.8,1.9-4.8,5.2v9.8h-3.3L366.2,547.8L366.2,547.8z"/>
	<path d="M402.5,540.8v24.5h-3.4v-19.6l-5.6,5.4v-4.2l6.3-6.1L402.5,540.8L402.5,540.8z"/>
	<path d="M416.6,553c0,8.1-2.1,16.3-10,17.3v-3c5.8-1.4,6.6-8.1,6.6-14.3s-0.8-12.9-6.6-14.3v-3C414.6,536.4,416.6,544.9,416.6,553z
		"/>
	<path d="M424.3,553.2h15.8v3h-15.8V553.2z"/>
	<path d="M456.1,540.8v24.5h-3.4v-19.6l-5.6,5.4v-4.2l6.3-6.1L456.1,540.8L456.1,540.8z"/>
	<path d="M497.1,540.8v24.5h-3.5v-21.5l-7.2,21.5h-4.5l-7.4-21.4v21.4H471v-24.5h5.8l7.3,21.2l7.2-21.2H497.1z"/>
	<path d="M504.7,561.4v-10.8h-3.9v-2.9h3.9V542h3.3v5.7h4.2v2.9H508v10.3c0,1.1,0.4,1.4,1.4,1.4h3.3v3h-4.2
		C506.1,565.3,504.7,563.9,504.7,561.4z"/>
	<path d="M519.7,553.2h15.8v3h-15.8V553.2z"/>
	<path d="M543.3,553c0-8.2,3.6-12.6,9.6-12.6s9.6,4.4,9.6,12.6s-3.6,12.6-9.6,12.6S543.3,561.3,543.3,553z M553.1,562.7
		c2.6,0,6-2.1,6-9.6c0-7.6-3.4-9.6-6-9.6h-0.4c-2.6,0-6,2.1-6,9.6c0,7.6,3.4,9.6,6,9.6H553.1z"/>
	<path d="M566.2,561.1h4.2v4.2h-4.2V561.1z"/>
	<path d="M592.9,556.7v3H589v5.6h-3.4v-5.6h-12v-3.4l12.1-15.6h3.3v16H592.9z M585.7,556.7v-11.3l-8.8,11.3H585.7z"/>
	<path d="M596.5,559.2c0-2.8,1.8-4.9,4.1-5.8c-2.5-0.6-4.6-3-4.6-6c0-4.1,3.3-6.9,8.2-6.9s8.2,2.8,8.2,6.9c0,3-2.1,5.4-4.6,6
		c2.4,0.9,4.1,3,4.1,5.8c0,3.8-3.2,6.5-7.7,6.5S596.5,563,596.5,559.2z M604.3,551.8c2.6,0,4.6-1.8,4.6-4.2c0-2.5-1.9-4.1-4.6-4.1
		H604c-2.6,0-4.6,1.7-4.6,4.1c0,2.5,1.9,4.2,4.6,4.2H604.3z M604.3,562.7c2.5,0,4.1-1.6,4.1-3.8c0-2.3-1.6-4.1-4.1-4.1H604
		c-2.5,0-4.1,1.8-4.1,4.1s1.6,3.8,4.1,3.8H604.3z"/>
	<path d="M631.1,557l-2.4,2.3v5.9h-3.3v-24.5h3.3v14.6l7.7-7.6h4.4l-7.3,7l7.6,10.5H637L631.1,557z"/>
	<path d="M644,547.8h3.3v2.5c1.1-1.6,2.8-2.8,5.3-2.8s4.6,1,5.8,3.3c1.4-2.4,3.6-3.3,5.8-3.3c4,0,6.3,2.5,6.3,6.1v11.7h-3.3v-11
		c0-2.5-1-4-3.5-4h-0.3c-2.1,0-4.4,1.9-4.4,5.2v9.8h-3.3v-11c0-2.5-1.1-4-3.5-4h-0.3c-2.1,0-4.4,1.9-4.4,5.2v9.8H644V547.8z"/>
</g>
</svg>
