<?xml version="1.0" encoding="utf-8"?>
<!-- Generator: Adobe Illustrator 21.1.0, SVG Export Plug-In . SVG Version: 6.00 Build 0)  -->
<svg version="1.1"
	 id="svg2" inkscape:output_extension="org.inkscape.output.svg.inkscape" inkscape:version="0.46" sodipodi:docname="Comparative_nuclear_fireball_sizes3.svg" sodipodi:version="0.32" xmlns:cc="http://creativecommons.org/ns#" xmlns:dc="http://purl.org/dc/elements/1.1/" xmlns:inkscape="http://www.inkscape.org/namespaces/inkscape" xmlns:rdf="http://www.w3.org/1999/02/22-rdf-syntax-ns#" xmlns:sodipodi="http://sodipodi.sourceforge.net/DTD/sodipodi-0.dtd" xmlns:svg="http://www.w3.org/2000/svg"
	 xmlns="http://www.w3.org/2000/svg" xmlns:xlink="http://www.w3.org/1999/xlink" x="0px" y="0px" viewBox="0 0 781 804"
	 style="enable-background:new 0 0 781 804;" xml:space="preserve">
<style type="text/css">
	.st0{fill:none;stroke:#000000;}
	.st1{fill:#FF0000;stroke:#000000;stroke-width:3;stroke-linecap:round;}
	.st2{fill:#FF01DA;stroke:#000000;stroke-width:3;stroke-linecap:round;}
	.st3{fill:#01FF19;stroke:#000000;stroke-width:3;stroke-linecap:round;}
	.st4{fill:#0198FF;stroke:#000000;stroke-width:3;}
	.st5{fill:#FF0000;}
	.st6{fill:#FF01DA;}
	.st7{fill:#01FF19;}
	.st8{fill:#0198FF;}
	.st9{fill:#DD2D32;}
	.st10{fill:none;stroke:#000700;stroke-width:3;}
	.st11{fill:#FFFFFF;}
	.st12{fill:none;}
	.st13{font-family:'Favorit-Regular';}
	.st14{font-size:15px;}
</style>
<path id="path5151" inkscape:connector-curvature="0" class="st0" d="M777.8,301.2H0.3l0,0"/>
<defs>
	
	
		<inkscape:perspective  id="perspective25" inkscape:persp3d-origin="390.5 : 268 : 1" inkscape:vp_x="0 : 402 : 1" inkscape:vp_y="0 : 1000 : 0" inkscape:vp_z="781 : 402 : 1" sodipodi:type="inkscape:persp3d">
		</inkscape:perspective>
</defs>
<sodipodi:namedview  bordercolor="#666666" borderopacity="1.0" id="base" inkscape:current-layer="layer2" inkscape:cx="469.886" inkscape:cy="431.45726" inkscape:document-units="px" inkscape:guide-bbox="true" inkscape:pageopacity="0.0" inkscape:pageshadow="2" inkscape:window-height="853" inkscape:window-width="1440" inkscape:window-x="-4" inkscape:window-y="-4" inkscape:zoom="0.70710678" pagecolor="#ffffff" showgrid="false" showguides="true">
	</sodipodi:namedview>
<g id="layer1" inkscape:groupmode="layer" inkscape:label="Layer 1">
</g>
<rect id="rect2381_2_" x="383.8" y="628.2" class="st1" width="29.7" height="29.7"/>
<rect id="rect2381_5_" x="383.8" y="672.2" class="st2" width="29.7" height="29.7"/>
<rect id="rect2381_4_" x="5.1" y="672.2" class="st3" width="29.7" height="29.7"/>
<rect id="rect2381_3_" x="5.1" y="628.2" class="st4" width="29.7" height="29.7"/>
<g>
	<path d="M47,649v-16.2h3.6v15.8c0,4.1,2,6.5,5.8,6.5h0.4c3.8,0,5.8-2.3,5.8-6.5v-15.8h3.6V649c0,5.6-3.2,9.4-9.5,9.4
		C50.1,658.3,47,654.6,47,649z"/>
	<path d="M71.5,640h3.4v2.5c1.1-1.6,2.9-2.9,5.8-2.9c4.1,0,6.5,2.5,6.5,6.3V658h-3.4v-11.3c0-2.5-1.1-4.1-3.6-4.1h-0.3
		c-2.6,0-4.9,2-4.9,5.4V658h-3.4V640z"/>
	<path d="M91.8,632.8h3.8v4h-3.8V632.8z M92,640h3.4v18H92V640z"/>
	<path d="M102.3,654v-11.1h-4v-3h4v-5.8h3.4v5.8h4.3v3h-4.3v10.5c0,1.1,0.4,1.4,1.4,1.4h3.4v3.1h-4.3
		C103.8,658,102.3,656.5,102.3,654z"/>
	<path d="M112.7,648.9c0-6.2,4.1-9.3,8.4-9.3c4.7,0,7.6,3.2,7.6,7.9v2h-12.6c0.2,4.1,2.8,5.9,5,5.9h0.3c1.8,0,3.5-0.9,3.8-2.8h3.4
		c-0.6,3.6-3.8,5.7-7.5,5.7C116.7,658.3,112.7,655.2,112.7,648.9z M125.3,646.8c-0.1-3.1-2-4.3-4.1-4.3H121c-1.9,0-4,1.1-4.6,4.3
		H125.3z"/>
	<path d="M131.6,649c0-5.9,3.6-9.4,8.1-9.4c2.5,0,4.7,1.3,5.6,2.9v-9.7h3.4V658h-3.4v-2.5c-0.9,1.6-3.4,2.9-5.9,2.9
		C134.8,658.3,131.6,654.9,131.6,649z M140.2,655.5c2.6,0,5.1-2.2,5.1-6.5s-2.5-6.5-5.1-6.5h-0.3c-2.7,0-4.9,2.2-4.9,6.5
		s2.2,6.5,4.9,6.5H140.2z"/>
	<path d="M160.8,649.9h3.6c0,3.4,2.7,5.2,6.4,5.2h0.4c3.4,0,5.2-1.7,5.2-3.8c0-2.1-1.3-3.2-4-3.8l-4-0.8c-4-0.8-6.4-3.1-6.4-7.1
		c0-4,3.6-7.2,9-7.2c5.6,0,9.1,3.1,9.3,7.9h-3.6c-0.2-2.9-2.5-4.7-5.5-4.7h-0.4c-3.1,0-5.2,1.7-5.2,3.9c0,1.9,1.3,3.1,3.5,3.5l4,0.8
		c4.4,0.9,6.9,3.2,6.9,7.3c0,4.4-3.7,7.2-9.3,7.2C164.7,658.3,160.9,655.5,160.8,649.9z"/>
	<path d="M186.2,654v-11.1h-4v-3h4v-5.8h3.4v5.8h4.3v3h-4.3v10.5c0,1.1,0.4,1.4,1.4,1.4h3.4v3.1h-4.3
		C187.7,658,186.2,656.5,186.2,654z"/>
	<path d="M208.5,658c-0.2-0.9-0.2-2.7-0.2-2.9c-0.7,1.6-2.9,3.2-5.8,3.2c-3.4,0-5.9-2.3-5.9-5.3c0-4.1,3.6-5.3,6.6-5.6l5-0.4v-0.6
		c0-2.5-1.4-4-3.7-4h-0.3c-1.9,0-3.5,0.9-3.7,2.7H197c0.2-3.3,3.2-5.6,7.3-5.6c4.8,0,7.3,3.2,7.3,6.8v7.6c0,1.1,0,2.7,0.2,4H208.5z
		 M208.2,651.5v-1.8l-4.5,0.4c-2.1,0.2-3.6,1.2-3.6,2.8c0,1.5,1.2,2.6,2.9,2.6h0.3C205.5,655.5,208.2,653.7,208.2,651.5z"/>
	<path d="M218.4,654v-11.1h-4v-3h4v-5.8h3.4v5.8h4.3v3h-4.3v10.5c0,1.1,0.4,1.4,1.4,1.4h3.4v3.1h-4.3
		C219.9,658,218.4,656.5,218.4,654z"/>
	<path d="M228.8,648.9c0-6.2,4.1-9.3,8.4-9.3c4.7,0,7.6,3.2,7.6,7.9v2h-12.6c0.2,4.1,2.8,5.9,5,5.9h0.3c1.8,0,3.5-0.9,3.8-2.8h3.4
		c-0.6,3.6-3.8,5.7-7.5,5.7C232.8,658.3,228.8,655.2,228.8,648.9z M241.4,646.8c-0.1-3.1-2-4.3-4.1-4.3h-0.3c-1.9,0-4,1.1-4.6,4.3
		H241.4z"/>
	<path d="M247.4,652.4h3.4c0.2,2,1.9,3.1,4,3.1h0.3c1.9,0,3.3-0.9,3.3-2.3c0-1.2-0.6-1.9-2.4-2.3l-2.6-0.5c-2.9-0.6-5.3-2.1-5.3-5.1
		c0-3.6,3.2-5.5,6.8-5.5c4.7,0,7.1,2.5,7.1,5.9h-3.4c-0.2-1.6-1.3-3.1-3.5-3.1h-0.3c-2,0-3.3,1-3.3,2.3c0,1.1,0.7,1.9,2.5,2.3
		l2.8,0.6c2.7,0.5,5,2,5,5.3c0,3.2-2.9,5.4-7.1,5.4C250,658.3,247.6,655.8,247.4,652.4z"/>
</g>
<g>
	<path d="M423.9,649.9h3.6c0,3.4,2.7,5.2,6.4,5.2h0.4c3.4,0,5.2-1.7,5.2-3.8c0-2.1-1.3-3.2-4-3.8l-4-0.8c-4-0.8-6.4-3.1-6.4-7.1
		c0-4,3.6-7.2,9-7.2c5.6,0,9.1,3.1,9.3,7.9h-3.6c-0.2-2.9-2.5-4.7-5.5-4.7H434c-3.1,0-5.2,1.7-5.2,3.9c0,1.9,1.3,3.1,3.5,3.5l4,0.8
		c4.4,0.9,6.9,3.2,6.9,7.3c0,4.4-3.7,7.2-9.3,7.2C427.9,658.4,424.1,655.5,423.9,649.9z"/>
	<path d="M446.4,649c0-5.6,3.8-9.4,8.6-9.4s8.6,3.8,8.6,9.4s-3.8,9.4-8.6,9.4S446.4,654.6,446.4,649z M455.2,655.5
		c2.9,0,5.1-2.3,5.1-6.5s-2.2-6.5-5.1-6.5h-0.3c-2.9,0-5.1,2.3-5.1,6.5s2.2,6.5,5.1,6.5H455.2z"/>
	<path d="M482.5,640l-6.7,18h-4.1l-6.7-18h3.5l5.2,14.7L479,640H482.5z"/>
	<path d="M485.2,632.8h3.8v4h-3.8V632.8z M485.4,640h3.4v18h-3.4V640z"/>
	<path d="M492.8,649c0-6.2,4.1-9.3,8.4-9.3c4.7,0,7.6,3.2,7.6,7.9v2h-12.6c0.2,4.1,2.8,5.9,5,5.9h0.3c1.8,0,3.5-0.9,3.8-2.8h3.4
		c-0.6,3.6-3.8,5.7-7.5,5.7C496.8,658.4,492.8,655.3,492.8,649z M505.4,646.9c-0.1-3.1-2-4.3-4.1-4.3H501c-1.9,0-4,1.1-4.6,4.3
		H505.4z"/>
	<path d="M514.3,654.1V643h-4v-3h4v-5.8h3.4v5.8h4.3v3h-4.3v10.5c0,1.1,0.4,1.4,1.4,1.4h3.4v3.1h-4.3
		C515.8,658,514.3,656.6,514.3,654.1z"/>
	<path d="M534.7,649v-16.2h3.6v15.8c0,4.1,2,6.5,5.8,6.5h0.4c3.8,0,5.8-2.3,5.8-6.5v-15.8h3.6V649c0,5.6-3.2,9.4-9.5,9.4
		C537.8,658.4,534.7,654.6,534.7,649z"/>
	<path d="M559.2,640h3.4v2.5c1.1-1.6,2.9-2.9,5.8-2.9c4.1,0,6.5,2.5,6.5,6.3V658h-3.4v-11.3c0-2.5-1.1-4.1-3.6-4.1h-0.3
		c-2.6,0-4.9,2-4.9,5.4V658h-3.4V640z"/>
	<path d="M579.5,632.8h3.8v4h-3.8V632.8z M579.7,640h3.4v18h-3.4V640z"/>
	<path d="M587,649c0-5.6,3.8-9.4,8.6-9.4s8.6,3.8,8.6,9.4s-3.8,9.4-8.6,9.4S587,654.6,587,649z M595.8,655.5c2.9,0,5.1-2.3,5.1-6.5
		s-2.2-6.5-5.1-6.5h-0.3c-2.9,0-5.1,2.3-5.1,6.5s2.2,6.5,5.1,6.5H595.8z"/>
	<path d="M608.2,640h3.4v2.5c1.1-1.6,2.9-2.9,5.8-2.9c4.1,0,6.5,2.5,6.5,6.3V658h-3.4v-11.3c0-2.5-1.1-4.1-3.6-4.1h-0.3
		c-2.6,0-4.9,2-4.9,5.4V658h-3.4V640z"/>
</g>
<g>
	<path d="M426.1,693v-16.2h3.6v15.8c0,4.1,2,6.5,5.8,6.5h0.4c3.8,0,5.8-2.3,5.8-6.5v-15.8h3.6V693c0,5.6-3.2,9.4-9.5,9.4
		C429.2,702.3,426.1,698.5,426.1,693z"/>
	<path d="M450.6,684h3.4v2.5c1.1-1.6,2.9-2.9,5.8-2.9c4.1,0,6.5,2.5,6.5,6.3V702h-3.4v-11.3c0-2.5-1.1-4.1-3.6-4.1h-0.3
		c-2.6,0-4.9,2-4.9,5.4V702h-3.4V684z"/>
	<path d="M470.9,676.8h3.8v4h-3.8V676.8z M471.1,684h3.4v18h-3.4V684z"/>
	<path d="M481.4,698v-11.1h-4v-3h4v-5.8h3.4v5.8h4.3v3h-4.3v10.5c0,1.1,0.4,1.4,1.4,1.4h3.4v3.1h-4.3
		C482.9,702,481.4,700.5,481.4,698z"/>
	<path d="M491.8,692.9c0-6.2,4.1-9.3,8.4-9.3c4.7,0,7.6,3.2,7.6,7.9v2h-12.6c0.2,4.1,2.8,5.9,5,5.9h0.3c1.8,0,3.5-0.9,3.8-2.8h3.4
		c-0.6,3.6-3.8,5.7-7.5,5.7C495.8,702.3,491.8,699.2,491.8,692.9z M504.4,690.8c-0.1-3.1-2-4.3-4.1-4.3H500c-1.9,0-4,1.1-4.6,4.3
		H504.4z"/>
	<path d="M510.7,693c0-5.9,3.6-9.4,8.1-9.4c2.5,0,4.7,1.3,5.6,2.9v-9.7h3.4V702h-3.4v-2.5c-0.9,1.6-3.4,2.9-5.9,2.9
		C513.9,702.3,510.7,698.9,510.7,693z M519.3,699.4c2.6,0,5.1-2.2,5.1-6.5s-2.5-6.5-5.1-6.5H519c-2.7,0-4.9,2.2-4.9,6.5
		s2.2,6.5,4.9,6.5H519.3z"/>
	<path d="M549.8,689.7l-4.4,4.5v7.8h-3.6v-25.2h3.6v12.5l12.4-12.5h4.7l-10.1,10.3l10.3,14.9h-4.5L549.8,689.7z"/>
	<path d="M565.1,676.8h3.8v4h-3.8V676.8z M565.2,684h3.4v18h-3.4V684z"/>
	<path d="M573.7,684h3.4v2.5c1.1-1.6,2.9-2.9,5.8-2.9c4.1,0,6.5,2.5,6.5,6.3V702h-3.4v-11.3c0-2.5-1.1-4.1-3.6-4.1H582
		c-2.6,0-4.9,2-4.9,5.4V702h-3.4V684z"/>
	<path d="M592.8,704.3h3.4c0.4,1.8,2.3,2.7,4.8,2.7h0.4c3.1,0,5.2-1.6,5.2-5.4v-2.5c-0.9,1.4-2.7,2.9-5.4,2.9c-4.1,0-8-2.9-8-9.2
		c0-6.3,3.7-9.2,8-9.2c2.7,0,4.7,1.4,5.4,2.9V684h3.4v18c0,4.5-3.2,7.9-8.8,7.9C596.1,709.9,593.2,707.5,592.8,704.3z M601.6,699.1
		c2.5,0,5-2.3,5-6.3c0-4-2.3-6.3-4.8-6.3h-0.3c-2.6,0-4.9,1.8-4.9,6.3c0,4.5,2.2,6.3,4.7,6.3H601.6z"/>
	<path d="M614,693c0-5.9,3.6-9.4,8.1-9.4c2.5,0,4.7,1.3,5.6,2.9v-9.7h3.4V702h-3.4v-2.5c-0.9,1.6-3.4,2.9-5.9,2.9
		C617.2,702.3,614,698.9,614,693z M622.6,699.4c2.6,0,5.1-2.2,5.1-6.5s-2.5-6.5-5.1-6.5h-0.3c-2.7,0-4.9,2.2-4.9,6.5
		s2.2,6.5,4.9,6.5H622.6z"/>
	<path d="M635,693c0-5.6,3.8-9.4,8.6-9.4s8.6,3.8,8.6,9.4s-3.8,9.4-8.6,9.4S635,698.5,635,693z M643.8,699.4c2.9,0,5.1-2.3,5.1-6.5
		s-2.2-6.5-5.1-6.5h-0.3c-2.9,0-5.1,2.3-5.1,6.5s2.2,6.5,5.1,6.5H643.8z"/>
	<path d="M656.2,684h3.4v2.5c1.1-1.6,2.9-2.9,5.4-2.9c2.6,0,4.8,1,5.9,3.3c1.4-2.5,3.7-3.3,5.9-3.3c4.1,0,6.5,2.5,6.5,6.3V702h-3.4
		v-11.3c0-2.5-1.1-4.1-3.6-4.1H676c-2.2,0-4.5,2-4.5,5.4V702h-3.4v-11.3c0-2.5-1.1-4.1-3.6-4.1h-0.3c-2.2,0-4.5,2-4.5,5.4V702h-3.4
		V684z"/>
</g>
<g>
	<path d="M47.3,676.8h17.6v3.2h-14v8.1h12.2v3.2H50.9V702h-3.6V676.8z"/>
	<path d="M67.5,684h3.2v4c0.7-2.7,2.9-4.1,5.2-4.1h1.6v3.3h-1.4c-3.2,0-5.2,2.2-5.2,5.8v9.1h-3.4V684z"/>
	<path d="M91,702c-0.2-0.9-0.2-2.7-0.2-2.9c-0.7,1.6-2.9,3.2-5.8,3.2c-3.4,0-5.9-2.3-5.9-5.3c0-4.1,3.6-5.3,6.6-5.6l5-0.4v-0.6
		c0-2.5-1.4-4-3.7-4h-0.3c-1.9,0-3.5,0.9-3.7,2.7h-3.4c0.2-3.3,3.2-5.6,7.3-5.6c4.8,0,7.3,3.2,7.3,6.8v7.6c0,1.1,0,2.7,0.2,4H91z
		 M90.7,695.5v-1.8l-4.5,0.4c-2.1,0.2-3.6,1.2-3.6,2.8c0,1.5,1.2,2.6,2.9,2.6h0.3C88,699.4,90.7,697.6,90.7,695.5z"/>
	<path d="M99.3,684h3.4v2.5c1.1-1.6,2.9-2.9,5.8-2.9c4.1,0,6.5,2.5,6.5,6.3V702h-3.4v-11.3c0-2.5-1.1-4.1-3.6-4.1h-0.3
		c-2.6,0-4.9,2-4.9,5.4V702h-3.4V684z"/>
	<path d="M118.8,693c0-5.3,3.1-9.4,8.6-9.4c4.1,0,7,2.4,7.4,6.3h-3.4c-0.3-2-1.8-3.4-3.8-3.4h-0.3c-3.5,0-5.1,3.1-5.1,6.5
		c0,3.4,1.6,6.5,5.1,6.5h0.3c2.1,0,3.5-1.4,3.8-3.4h3.4c-0.4,3.9-3.3,6.3-7.4,6.3C121.9,702.3,118.8,698.3,118.8,693z"/>
	<path d="M137.5,692.9c0-6.2,4.1-9.3,8.4-9.3c4.7,0,7.6,3.2,7.6,7.9v2H141c0.2,4.1,2.8,5.9,5,5.9h0.3c1.8,0,3.5-0.9,3.8-2.8h3.4
		c-0.6,3.6-3.8,5.7-7.5,5.7C141.6,702.3,137.5,699.2,137.5,692.9z M150.1,690.8c-0.1-3.1-2-4.3-4.1-4.3h-0.3c-1.9,0-4,1.1-4.6,4.3
		H150.1z"/>
</g>
<path id="path4175" inkscape:connector-curvature="0" class="st0" d="M778.3,77.3H2.7l0,0"/>
<path id="path5147" inkscape:connector-curvature="0" class="st0" d="M778.2,150.6H0.3l0,0"/>
<rect id="rect4270" x="755.4" y="16.2" class="st5" width="22.9" height="150.9"/>
<rect id="rect4272" x="755.4" y="8.8" class="st6" width="22.9" height="12.9"/>
<rect id="rect4274" x="755.4" y="4.3" class="st7" width="22.8" height="4.4"/>
<path id="path5149" inkscape:connector-curvature="0" class="st0" d="M778,225.9H0.3l0,0"/>
<path id="path5153" inkscape:connector-curvature="0" class="st0" d="M777.6,375.2H0.3l0,0"/>
<path id="path5155" inkscape:connector-curvature="0" class="st0" d="M777.9,452.4H0.2l0,0"/>
<rect id="rect2190" x="3.1" y="514.8" class="st8" width="22.9" height="12.6"/>
<rect id="rect4149" x="49.1" y="519.2" class="st8" width="22.9" height="8.2"/>
<rect id="rect4151" x="136.3" y="514.8" class="st8" width="22.9" height="12.6"/>
<rect id="rect4153" x="181.9" y="522.2" class="st5" width="22.9" height="5"/>
<rect id="rect4155" x="269.4" y="467.4" class="st8" width="22.9" height="59.7"/>
<rect id="rect4157" x="269.3" y="458.6" class="st5" width="22.9" height="8.8"/>
<rect id="rect4159" x="311.1" y="491.1" class="st8" width="22.9" height="35.6"/>
<rect id="rect4161" x="311.1" y="482.3" class="st6" width="22.9" height="8.8"/>
<rect id="rect2259" x="356.7" y="486.7" class="st8" width="22.9" height="40.2"/>
<rect id="rect2261" x="356.7" y="477.8" class="st5" width="22.9" height="8.8"/>
<rect id="rect2263" x="356.7" y="469" class="st6" width="22.9" height="8.8"/>
<g id="g2287" transform="matrix(1.4795801,0,0,1.4795801,2.2384627,24.265622)">
	<rect id="rect2273" x="270.3" y="325.5" class="st8" width="15.5" height="14.1"/>
	<rect id="rect2275" x="270.3" y="321.5" class="st8" width="15.5" height="4"/>
</g>
<rect id="rect2293" x="444" y="471.9" class="st8" width="22.9" height="54.8"/>
<rect id="rect2295" x="444" y="451.2" class="st5" width="22.9" height="20.7"/>
<rect id="rect4238" x="489.6" y="460" class="st8" width="22.9" height="68.2"/>
<rect id="rect4240" x="489.6" y="433.4" class="st5" width="22.9" height="26.6"/>
<rect id="rect4242" x="489.6" y="409.7" class="st6" width="22.9" height="23.7"/>
<rect id="rect4244" x="576.9" y="252.9" class="st8" width="22.9" height="273.9"/>
<rect id="rect4250" x="576.9" y="155.2" class="st5" width="22.9" height="97.6"/>
<rect id="rect4252" x="576.9" y="136" class="st6" width="22.9" height="19.2"/>
<rect id="rect4254" x="535.2" y="415.6" class="st8" width="22.9" height="111.6"/>
<rect id="rect4256" x="535.2" y="366.8" class="st5" width="22.9" height="48.8"/>
<rect id="rect4258" x="535.2" y="338.7" class="st6" width="22.9" height="28.1"/>
<rect id="rect4260" x="664.3" y="514.8" class="st7" width="22.8" height="11.9"/>
<rect id="rect4262" x="709.9" y="491.1" class="st8" width="22.9" height="35.6"/>
<rect id="rect4264" x="709.9" y="362.4" class="st9" width="22.9" height="128.7"/>
<rect id="rect4266" x="709.9" y="348.4" class="st7" width="22.8" height="14"/>
<rect id="rect4268" x="755.4" y="167.1" class="st8" width="22.9" height="359.8"/>
<rect id="rect2235" x="1.5" y="1.5" class="st10" width="777.9" height="526.7"/>
<g>
	<path d="M21.9,542H5.1v-2.3h13.4l-3.7-3.8h2.9l4.2,4.3V542z"/>
	<path d="M14,557.5c-5.4,0-9.2-3.3-9.2-7.1c0-2.9,1.6-4.9,4.3-5.4v2.4c-1.3,0.4-2.3,1.3-2.3,2.8v0.3c0,2.6,2.7,4.6,6.7,4.9
		c-1.7-0.8-2.8-2.6-2.8-4.6c0-3,2.2-5.4,5.5-5.4c3.5,0,5.8,2.5,5.8,5.9C22.1,555,19.2,557.5,14,557.5z M16.4,554.8
		c2,0,3.6-1.7,3.6-3.5v-0.2c0-1.8-1.4-3.4-3.6-3.4c-2.2,0-3.6,1.6-3.6,3.4v0.2C12.9,553.2,14.4,554.8,16.4,554.8z"/>
	<path d="M10.9,572.5h-2v-2.6H5.1v-2.3h3.8v-8.3h2.3l10.7,8.3v2.3H10.9V572.5z M10.9,567.5h7.7l-7.7-6V567.5z"/>
	<path d="M10.5,585.7c-3.3,0-5.6-2.6-5.6-5.9c0-3.1,1.6-5.7,4.7-5.9v2.4c-1.7,0.2-2.6,1.7-2.6,3.5v0.2c0,2,1.5,3.4,3.5,3.4
		c1.8,0,3.2-1.4,3.2-3.3v-0.2c0-1.1-0.6-2.3-1.6-3v-2.3l10,2v9h-2.2v-7.2l-5.4-1.2c0.9,0.9,1.3,2.2,1.3,3.4
		C15.6,583.6,13.3,585.7,10.5,585.7z"/>
</g>
<g>
	<path d="M69.3,542H52.5v-2.3H66l-3.7-3.8h2.9l4.2,4.3V542z"/>
	<path d="M61.5,557.5c-5.4,0-9.2-3.3-9.2-7.1c0-2.9,1.6-4.9,4.3-5.4v2.4c-1.3,0.4-2.3,1.3-2.3,2.8v0.3c0,2.6,2.7,4.6,6.7,4.9
		c-1.7-0.8-2.8-2.6-2.8-4.6c0-3,2.2-5.4,5.5-5.4c3.5,0,5.8,2.5,5.8,5.9C69.6,555,66.7,557.5,61.5,557.5z M63.9,554.8
		c2,0,3.6-1.7,3.6-3.5v-0.2c0-1.8-1.4-3.4-3.6-3.4c-2.2,0-3.6,1.6-3.6,3.4v0.2C60.3,553.2,61.9,554.8,63.9,554.8z"/>
	<path d="M58.4,572.5h-2v-2.6h-3.8v-2.3h3.8v-8.3h2.3l10.7,8.3v2.3H58.4V572.5z M58.4,567.5h7.7l-7.7-6V567.5z"/>
	<path d="M58.1,586.4c-3.5,0-5.8-2.5-5.8-5.9c0-3.7,2.9-6.2,8.1-6.2c5.4,0,9.2,3.3,9.2,7.1c0,2.9-1.6,4.9-4.3,5.4v-2.4
		c1.3-0.4,2.3-1.3,2.3-2.8v-0.3c0-2.6-2.7-4.6-6.7-4.9c1.7,0.8,2.8,2.6,2.8,4.6C63.6,584,61.4,586.4,58.1,586.4z M57.9,584.1
		c2.2,0,3.6-1.6,3.6-3.4v-0.2c0-1.8-1.5-3.5-3.6-3.5c-2,0-3.6,1.7-3.6,3.5v0.2C54.4,582.5,55.8,584.1,57.9,584.1z"/>
</g>
<g>
	<path d="M114,542H97.2v-2.3h13.4l-3.7-3.8h2.9l4.2,4.3V542z"/>
	<path d="M106.1,557.5c-5.4,0-9.2-3.3-9.2-7.1c0-2.9,1.6-4.9,4.3-5.4v2.4c-1.3,0.4-2.3,1.3-2.3,2.8v0.3c0,2.6,2.7,4.6,6.7,4.9
		c-1.7-0.8-2.8-2.6-2.8-4.6c0-3,2.2-5.4,5.5-5.4c3.5,0,5.8,2.5,5.8,5.9C114.2,555,111.3,557.5,106.1,557.5z M108.5,554.8
		c2,0,3.6-1.7,3.6-3.5v-0.2c0-1.8-1.4-3.4-3.6-3.4c-2.2,0-3.6,1.6-3.6,3.4v0.2C105,553.2,106.5,554.8,108.5,554.8z"/>
	<path d="M103,572.5h-2v-2.6h-3.8v-2.3h3.8v-8.3h2.3l10.7,8.3v2.3H103V572.5z M103,567.5h7.7l-7.7-6V567.5z"/>
	<path d="M114,585.2h-2.3c-2.6-4.3-6.9-6.3-14-6.3h-0.5v-2.4h0.7c6.9,0,11.5,2.4,13.9,6.2v-9.2h2.2V585.2z"/>
</g>
<g>
	<path d="M155.1,542h-16.8v-2.3h13.4l-3.7-3.8h2.9l4.2,4.3V542z"/>
	<path d="M147.2,557.5c-5.4,0-9.2-3.3-9.2-7.1c0-2.9,1.6-4.9,4.3-5.4v2.4c-1.3,0.4-2.3,1.3-2.3,2.8v0.3c0,2.6,2.7,4.6,6.7,4.9
		c-1.7-0.8-2.8-2.6-2.8-4.6c0-3,2.2-5.4,5.5-5.4c3.5,0,5.8,2.5,5.8,5.9C155.3,555,152.4,557.5,147.2,557.5z M149.6,554.8
		c2,0,3.6-1.7,3.6-3.5v-0.2c0-1.8-1.4-3.4-3.6-3.4c-2.2,0-3.6,1.6-3.6,3.4v0.2C146.1,553.2,147.6,554.8,149.6,554.8z"/>
	<path d="M144.1,572.5h-2v-2.6h-3.8v-2.3h3.8v-8.3h2.3l10.7,8.3v2.3h-10.9V572.5z M144.1,567.5h7.7l-7.7-6V567.5z"/>
	<path d="M142.5,574.7c1.9,0,3.4,1.2,4,2.8c0.4-1.7,2.1-3.2,4.1-3.2c2.8,0,4.8,2.3,4.8,5.6c0,3.3-1.9,5.6-4.8,5.6
		c-2,0-3.7-1.5-4.1-3.2c-0.6,1.6-2,2.8-4,2.8c-2.6,0-4.4-2.2-4.4-5.3C138,576.8,139.8,574.7,142.5,574.7z M140.1,580
		c0,1.7,1.1,2.8,2.6,2.8c1.6,0,2.8-1.1,2.8-2.8v-0.2c0-1.7-1.2-2.8-2.8-2.8c-1.6,0-2.6,1.1-2.6,2.8V580z M147.5,580
		c0,1.8,1.2,3.1,2.9,3.1c1.7,0,2.8-1.3,2.8-3.1v-0.2c0-1.8-1.2-3.1-2.8-3.1c-1.7,0-2.9,1.3-2.9,3.1V580z"/>
</g>
<g>
	<path d="M200.7,542h-16.8v-2.3h13.4l-3.7-3.8h2.9l4.2,4.3V542z"/>
	<path d="M192.9,557.5c-5.4,0-9.2-3.3-9.2-7.1c0-2.9,1.6-4.9,4.3-5.4v2.4c-1.3,0.4-2.3,1.3-2.3,2.8v0.3c0,2.6,2.7,4.6,6.7,4.9
		c-1.7-0.8-2.8-2.6-2.8-4.6c0-3,2.2-5.4,5.5-5.4c3.5,0,5.8,2.5,5.8,5.9C200.9,555,198,557.5,192.9,557.5z M195.3,554.8
		c2,0,3.6-1.7,3.6-3.5v-0.2c0-1.8-1.4-3.4-3.6-3.4c-2.2,0-3.6,1.6-3.6,3.4v0.2C191.7,553.2,193.2,554.8,195.3,554.8z"/>
	<path d="M189.8,572.5h-2v-2.6h-3.8v-2.3h3.8v-8.3h2.3l10.7,8.3v2.3h-10.9V572.5z M189.8,567.5h7.7l-7.7-6V567.5z"/>
	<path d="M192.9,586.6c-5.4,0-9.2-3.3-9.2-7.1c0-2.9,1.6-4.9,4.3-5.4v2.4c-1.3,0.4-2.3,1.3-2.3,2.8v0.3c0,2.6,2.7,4.6,6.7,4.9
		c-1.7-0.8-2.8-2.6-2.8-4.6c0-3,2.2-5.4,5.5-5.4c3.5,0,5.8,2.5,5.8,5.9C200.9,584.1,198,586.6,192.9,586.6z M195.3,583.9
		c2,0,3.6-1.7,3.6-3.5v-0.2c0-1.8-1.4-3.4-3.6-3.4c-2.2,0-3.6,1.6-3.6,3.4v0.2C191.7,582.3,193.2,583.9,195.3,583.9z"/>
</g>
<g>
	<path d="M246.4,542h-16.8v-2.3H243l-3.7-3.8h2.9l4.2,4.3V542z"/>
	<path d="M238.5,557.5c-5.4,0-9.2-3.3-9.2-7.1c0-2.9,1.6-4.9,4.3-5.4v2.4c-1.3,0.4-2.3,1.3-2.3,2.8v0.3c0,2.6,2.7,4.6,6.7,4.9
		c-1.7-0.8-2.8-2.6-2.8-4.6c0-3,2.2-5.4,5.5-5.4c3.5,0,5.8,2.5,5.8,5.9C246.6,555,243.7,557.5,238.5,557.5z M240.9,554.8
		c2,0,3.6-1.7,3.6-3.5v-0.2c0-1.8-1.4-3.4-3.6-3.4c-2.2,0-3.6,1.6-3.6,3.4v0.2C237.4,553.2,238.9,554.8,240.9,554.8z"/>
	<path d="M235.4,572.5h-2v-2.6h-3.8v-2.3h3.8v-8.3h2.3l10.7,8.3v2.3h-10.9V572.5z M235.4,567.5h7.7l-7.7-6V567.5z"/>
	<path d="M238.5,586.6c-5.4,0-9.2-3.3-9.2-7.1c0-2.9,1.6-4.9,4.3-5.4v2.4c-1.3,0.4-2.3,1.3-2.3,2.8v0.3c0,2.6,2.7,4.6,6.7,4.9
		c-1.7-0.8-2.8-2.6-2.8-4.6c0-3,2.2-5.4,5.5-5.4c3.5,0,5.8,2.5,5.8,5.9C246.6,584.1,243.7,586.6,238.5,586.6z M240.9,583.9
		c2,0,3.6-1.7,3.6-3.5v-0.2c0-1.8-1.4-3.4-3.6-3.4c-2.2,0-3.6,1.6-3.6,3.4v0.2C237.4,582.3,238.9,583.9,240.9,583.9z"/>
</g>
<g>
	<path d="M288.1,542h-16.8v-2.3h13.4l-3.7-3.8h2.9l4.2,4.3V542z"/>
	<path d="M280.3,557.5c-5.4,0-9.2-3.3-9.2-7.1c0-2.9,1.6-4.9,4.3-5.4v2.4c-1.3,0.4-2.3,1.3-2.3,2.8v0.3c0,2.6,2.7,4.6,6.7,4.9
		c-1.7-0.8-2.8-2.6-2.8-4.6c0-3,2.2-5.4,5.5-5.4c3.5,0,5.8,2.5,5.8,5.9C288.4,555,285.5,557.5,280.3,557.5z M282.7,554.8
		c2,0,3.6-1.7,3.6-3.5v-0.2c0-1.8-1.4-3.4-3.6-3.4c-2.2,0-3.6,1.6-3.6,3.4v0.2C279.1,553.2,280.7,554.8,282.7,554.8z"/>
	<path d="M276.7,571.3c-3.3,0-5.6-2.6-5.6-5.9c0-3.1,1.6-5.7,4.7-5.9v2.4c-1.7,0.2-2.6,1.7-2.6,3.5v0.2c0,2,1.5,3.4,3.5,3.4
		c1.8,0,3.2-1.4,3.2-3.3v-0.2c0-1.1-0.6-2.3-1.6-3v-2.3l10,2v9H286v-7.2l-5.4-1.2c0.9,0.9,1.3,2.2,1.3,3.4
		C281.9,569.1,279.6,571.3,276.7,571.3z"/>
	<path d="M288.1,579.2h-16.8v-2.3h13.4l-3.7-3.8h2.9l4.2,4.3V579.2z"/>
</g>
<g>
	<path d="M329.9,542h-16.8v-2.3h13.4l-3.7-3.8h2.9l4.2,4.3V542z"/>
	<path d="M322.1,557.5c-5.4,0-9.2-3.3-9.2-7.1c0-2.9,1.6-4.9,4.3-5.4v2.4c-1.3,0.4-2.3,1.3-2.3,2.8v0.3c0,2.6,2.7,4.6,6.7,4.9
		c-1.7-0.8-2.8-2.6-2.8-4.6c0-3,2.2-5.4,5.5-5.4c3.5,0,5.8,2.5,5.8,5.9C330.1,555,327.2,557.5,322.1,557.5z M324.5,554.8
		c2,0,3.6-1.7,3.6-3.5v-0.2c0-1.8-1.4-3.4-3.6-3.4c-2.2,0-3.6,1.6-3.6,3.4v0.2C320.9,553.2,322.4,554.8,324.5,554.8z"/>
	<path d="M318.5,571.3c-3.3,0-5.6-2.6-5.6-5.9c0-3.1,1.6-5.7,4.7-5.9v2.4c-1.7,0.2-2.6,1.7-2.6,3.5v0.2c0,2,1.5,3.4,3.5,3.4
		c1.8,0,3.2-1.4,3.2-3.3v-0.2c0-1.1-0.6-2.3-1.6-3v-2.3l10,2v9h-2.2v-7.2l-5.4-1.2c0.9,0.9,1.3,2.2,1.3,3.4
		C323.6,569.1,321.4,571.3,318.5,571.3z"/>
	<path d="M315.3,584.9h-2.2v-11.4h2.5l5.2,5.4c1.4,1.5,2.7,3.3,4.7,3.3c1.6,0,2.6-1.2,2.6-2.8v-0.2c0-1.8-1.4-3.1-3.2-3.1v-2.4
		c3.2,0,5.3,2.4,5.3,5.6c0,2.9-1.6,5.3-4.5,5.3c-2.7,0-4.4-2-6.2-3.9l-4.2-4.5V584.9z"/>
</g>
<g>
	<path d="M421,542h-16.8v-2.3h13.4l-3.7-3.8h2.9l4.2,4.3V542z"/>
	<path d="M413.1,557.5c-5.4,0-9.2-3.3-9.2-7.1c0-2.9,1.6-4.9,4.3-5.4v2.4c-1.3,0.4-2.3,1.3-2.3,2.8v0.3c0,2.6,2.7,4.6,6.7,4.9
		c-1.7-0.8-2.8-2.6-2.8-4.6c0-3,2.2-5.4,5.5-5.4c3.5,0,5.8,2.5,5.8,5.9C421.2,555,418.3,557.5,413.1,557.5z M415.6,554.8
		c2,0,3.6-1.7,3.6-3.5v-0.2c0-1.8-1.4-3.4-3.6-3.4c-2.2,0-3.6,1.6-3.6,3.4v0.2C412,553.2,413.5,554.8,415.6,554.8z"/>
	<path d="M409.6,571.3c-3.3,0-5.6-2.6-5.6-5.9c0-3.1,1.6-5.7,4.7-5.9v2.4c-1.7,0.2-2.6,1.7-2.6,3.5v0.2c0,2,1.5,3.4,3.5,3.4
		c1.8,0,3.2-1.4,3.2-3.3v-0.2c0-1.1-0.6-2.3-1.6-3v-2.3l10,2v9h-2.2v-7.2l-5.4-1.2c0.9,0.9,1.3,2.2,1.3,3.4
		C414.7,569.1,412.5,571.3,409.6,571.3z"/>
	<path d="M410,586.2h-2v-2.6h-3.8v-2.3h3.8V573h2.3l10.7,8.3v2.3H410V586.2z M410,581.3h7.7l-7.7-6V581.3z"/>
</g>
<g>
	<path d="M375.5,542h-16.8v-2.3h13.4l-3.7-3.8h2.9l4.2,4.3V542z"/>
	<path d="M367.6,557.5c-5.4,0-9.2-3.3-9.2-7.1c0-2.9,1.6-4.9,4.3-5.4v2.4c-1.3,0.4-2.3,1.3-2.3,2.8v0.3c0,2.6,2.7,4.6,6.7,4.9
		c-1.7-0.8-2.8-2.6-2.8-4.6c0-3,2.2-5.4,5.5-5.4c3.5,0,5.8,2.5,5.8,5.9C375.7,555,372.8,557.5,367.6,557.5z M370,554.8
		c2,0,3.6-1.7,3.6-3.5v-0.2c0-1.8-1.4-3.4-3.6-3.4c-2.2,0-3.6,1.6-3.6,3.4v0.2C366.5,553.2,368,554.8,370,554.8z"/>
	<path d="M364.1,571.3c-3.3,0-5.6-2.6-5.6-5.9c0-3.1,1.6-5.7,4.7-5.9v2.4c-1.7,0.2-2.6,1.7-2.6,3.5v0.2c0,2,1.5,3.4,3.5,3.4
		c1.8,0,3.2-1.4,3.2-3.3v-0.2c0-1.1-0.6-2.3-1.6-3v-2.3l10,2v9h-2.2v-7.2l-5.4-1.2c0.9,0.9,1.3,2.2,1.3,3.4
		C369.2,569.1,367,571.3,364.1,571.3z"/>
	<path d="M363.1,573.4v2.3c-1.7,0.3-2.6,1.6-2.6,3.4v0.2c0,1.8,1.1,3.2,2.8,3.2c1.8,0,2.8-1.3,2.8-3v-1.4h2v1.4
		c0,1.8,1.3,2.9,2.8,2.9c1.7,0,2.8-1.3,2.8-3.1v-0.2c0-1.6-1.1-3-2.6-3.1v-2.3c2.7,0.1,4.7,2.5,4.7,5.6c0,3-2,5.4-4.4,5.4
		c-2.2,0-3.6-1.2-4.1-2.9c-0.4,1.7-1.8,3-4,3c-2.7,0-4.7-2.4-4.7-5.7C358.4,576,360.2,573.7,363.1,573.4z"/>
</g>
<g>
	<path d="M462.8,542H446v-2.3h13.4l-3.7-3.8h2.9l4.2,4.3V542z"/>
	<path d="M455,557.5c-5.4,0-9.2-3.3-9.2-7.1c0-2.9,1.6-4.9,4.3-5.4v2.4c-1.3,0.4-2.3,1.3-2.3,2.8v0.3c0,2.6,2.7,4.6,6.7,4.9
		c-1.7-0.8-2.8-2.6-2.8-4.6c0-3,2.2-5.4,5.5-5.4c3.5,0,5.8,2.5,5.8,5.9C463.1,555,460.1,557.5,455,557.5z M457.4,554.8
		c2,0,3.6-1.7,3.6-3.5v-0.2c0-1.8-1.4-3.4-3.6-3.4c-2.2,0-3.6,1.6-3.6,3.4v0.2C453.8,553.2,455.4,554.8,457.4,554.8z"/>
	<path d="M451.4,571.3c-3.3,0-5.6-2.6-5.6-5.9c0-3.1,1.6-5.7,4.7-5.9v2.4c-1.7,0.2-2.6,1.7-2.6,3.5v0.2c0,2,1.5,3.4,3.5,3.4
		c1.8,0,3.2-1.4,3.2-3.3v-0.2c0-1.1-0.6-2.3-1.6-3v-2.3l10,2v9h-2.2v-7.2l-5.4-1.2c0.9,0.9,1.3,2.2,1.3,3.4
		C456.5,569.1,454.3,571.3,451.4,571.3z"/>
	<path d="M451.4,585c-3.3,0-5.6-2.6-5.6-5.9c0-3.1,1.6-5.7,4.7-5.9v2.4c-1.7,0.2-2.6,1.7-2.6,3.5v0.2c0,2,1.5,3.4,3.5,3.4
		c1.8,0,3.2-1.4,3.2-3.3v-0.2c0-1.1-0.6-2.3-1.6-3v-2.3l10,2v9h-2.2v-7.2l-5.4-1.2c0.9,0.9,1.3,2.2,1.3,3.4
		C456.5,582.9,454.3,585,451.4,585z"/>
</g>
<g>
	<path d="M508.4,542h-16.8v-2.3H505l-3.7-3.8h2.9l4.2,4.3V542z"/>
	<path d="M500.5,557.5c-5.4,0-9.2-3.3-9.2-7.1c0-2.9,1.6-4.9,4.3-5.4v2.4c-1.3,0.4-2.3,1.3-2.3,2.8v0.3c0,2.6,2.7,4.6,6.7,4.9
		c-1.7-0.8-2.8-2.6-2.8-4.6c0-3,2.2-5.4,5.5-5.4c3.5,0,5.8,2.5,5.8,5.9C508.6,555,505.7,557.5,500.5,557.5z M502.9,554.8
		c2,0,3.6-1.7,3.6-3.5v-0.2c0-1.8-1.4-3.4-3.6-3.4c-2.2,0-3.6,1.6-3.6,3.4v0.2C499.4,553.2,500.9,554.8,502.9,554.8z"/>
	<path d="M497,571.3c-3.3,0-5.6-2.6-5.6-5.9c0-3.1,1.6-5.7,4.7-5.9v2.4c-1.7,0.2-2.6,1.7-2.6,3.5v0.2c0,2,1.5,3.4,3.5,3.4
		c1.8,0,3.2-1.4,3.2-3.3v-0.2c0-1.1-0.6-2.3-1.6-3v-2.3l10,2v9h-2.2v-7.2l-5.4-1.2c0.9,0.9,1.3,2.2,1.3,3.4
		C502.1,569.1,499.8,571.3,497,571.3z"/>
	<path d="M497.1,585.7c-3.5,0-5.8-2.5-5.8-5.9c0-3.7,2.9-6.2,8.1-6.2c5.4,0,9.2,3.3,9.2,7.1c0,2.9-1.6,4.9-4.3,5.4v-2.4
		c1.3-0.4,2.3-1.3,2.3-2.8v-0.3c0-2.6-2.7-4.6-6.7-4.9c1.7,0.8,2.8,2.6,2.8,4.6C502.6,583.3,500.4,585.7,497.1,585.7z M497,583.4
		c2.2,0,3.6-1.6,3.6-3.4v-0.2c0-1.8-1.5-3.5-3.6-3.5c-2,0-3.6,1.7-3.6,3.5v0.2C493.4,581.8,494.8,583.4,497,583.4z"/>
</g>
<g>
	<path d="M554,542h-16.8v-2.3h13.4l-3.7-3.8h2.9l4.2,4.3V542z"/>
	<path d="M546.1,557.5c-5.4,0-9.2-3.3-9.2-7.1c0-2.9,1.6-4.9,4.3-5.4v2.4c-1.3,0.4-2.3,1.3-2.3,2.8v0.3c0,2.6,2.7,4.6,6.7,4.9
		c-1.7-0.8-2.8-2.6-2.8-4.6c0-3,2.2-5.4,5.5-5.4c3.5,0,5.8,2.5,5.8,5.9C554.2,555,551.3,557.5,546.1,557.5z M548.5,554.8
		c2,0,3.6-1.7,3.6-3.5v-0.2c0-1.8-1.4-3.4-3.6-3.4c-2.2,0-3.6,1.6-3.6,3.4v0.2C545,553.2,546.5,554.8,548.5,554.8z"/>
	<path d="M542.6,571.3c-3.3,0-5.6-2.6-5.6-5.9c0-3.1,1.6-5.7,4.7-5.9v2.4c-1.7,0.2-2.6,1.7-2.6,3.5v0.2c0,2,1.5,3.4,3.5,3.4
		c1.8,0,3.2-1.4,3.2-3.3v-0.2c0-1.1-0.6-2.3-1.6-3v-2.3l10,2v9h-2.2v-7.2l-5.4-1.2c0.9,0.9,1.3,2.2,1.3,3.4
		C547.7,569.1,545.4,571.3,542.6,571.3z"/>
	<path d="M554,584.5h-2.3c-2.6-4.3-6.9-6.3-14-6.3h-0.5v-2.4h0.7c6.9,0,11.5,2.4,13.9,6.2v-9.2h2.2V584.5z"/>
</g>
<g>
	<path d="M595.7,542h-16.8v-2.3h13.4l-3.7-3.8h2.9l4.2,4.3V542z"/>
	<path d="M587.9,557.5c-5.4,0-9.2-3.3-9.2-7.1c0-2.9,1.6-4.9,4.3-5.4v2.4c-1.3,0.4-2.3,1.3-2.3,2.8v0.3c0,2.6,2.7,4.6,6.7,4.9
		c-1.7-0.8-2.8-2.6-2.8-4.6c0-3,2.2-5.4,5.5-5.4c3.5,0,5.8,2.5,5.8,5.9C596,555,593.1,557.5,587.9,557.5z M590.3,554.8
		c2,0,3.6-1.7,3.6-3.5v-0.2c0-1.8-1.4-3.4-3.6-3.4c-2.2,0-3.6,1.6-3.6,3.4v0.2C586.7,553.2,588.3,554.8,590.3,554.8z"/>
	<path d="M584.3,571.3c-3.3,0-5.6-2.6-5.6-5.9c0-3.1,1.6-5.7,4.7-5.9v2.4c-1.7,0.2-2.6,1.7-2.6,3.5v0.2c0,2,1.5,3.4,3.5,3.4
		c1.8,0,3.2-1.4,3.2-3.3v-0.2c0-1.1-0.6-2.3-1.6-3v-2.3l10,2v9h-2.2v-7.2l-5.4-1.2c0.9,0.9,1.3,2.2,1.3,3.4
		C589.5,569.1,587.2,571.3,584.3,571.3z"/>
	<path d="M583.1,574c1.9,0,3.4,1.2,4,2.8c0.4-1.7,2.1-3.2,4.1-3.2c2.8,0,4.8,2.3,4.8,5.6c0,3.3-1.9,5.6-4.8,5.6
		c-2,0-3.7-1.5-4.1-3.2c-0.6,1.6-2,2.8-4,2.8c-2.6,0-4.4-2.2-4.4-5.3C578.7,576.1,580.5,574,583.1,574z M580.7,579.3
		c0,1.7,1.1,2.8,2.6,2.8c1.6,0,2.8-1.1,2.8-2.8v-0.2c0-1.7-1.2-2.8-2.8-2.8c-1.6,0-2.6,1.1-2.6,2.8V579.3z M588.2,579.3
		c0,1.8,1.2,3.1,2.9,3.1c1.7,0,2.8-1.3,2.8-3.1v-0.2c0-1.8-1.2-3.1-2.8-3.1c-1.7,0-2.9,1.3-2.9,3.1V579.3z"/>
</g>
<g>
	<path d="M637.3,542h-16.8v-2.3H634l-3.7-3.8h2.9l4.2,4.3V542z"/>
	<path d="M629.5,557.5c-5.4,0-9.2-3.3-9.2-7.1c0-2.9,1.6-4.9,4.3-5.4v2.4c-1.3,0.4-2.3,1.3-2.3,2.8v0.3c0,2.6,2.7,4.6,6.7,4.9
		c-1.7-0.8-2.8-2.6-2.8-4.6c0-3,2.2-5.4,5.5-5.4c3.5,0,5.8,2.5,5.8,5.9C637.6,555,634.7,557.5,629.5,557.5z M631.9,554.8
		c2,0,3.6-1.7,3.6-3.5v-0.2c0-1.8-1.4-3.4-3.6-3.4c-2.2,0-3.6,1.6-3.6,3.4v0.2C628.3,553.2,629.9,554.8,631.9,554.8z"/>
	<path d="M625.9,571.3c-3.3,0-5.6-2.6-5.6-5.9c0-3.1,1.6-5.7,4.7-5.9v2.4c-1.7,0.2-2.6,1.7-2.6,3.5v0.2c0,2,1.5,3.4,3.5,3.4
		c1.8,0,3.2-1.4,3.2-3.3v-0.2c0-1.1-0.6-2.3-1.6-3v-2.3l10,2v9h-2.2v-7.2l-5.4-1.2c0.9,0.9,1.3,2.2,1.3,3.4
		C631.1,569.1,628.8,571.3,625.9,571.3z"/>
	<path d="M629.5,585.9c-5.4,0-9.2-3.3-9.2-7.1c0-2.9,1.6-4.9,4.3-5.4v2.4c-1.3,0.4-2.3,1.3-2.3,2.8v0.3c0,2.6,2.7,4.6,6.7,4.9
		c-1.7-0.8-2.8-2.6-2.8-4.6c0-3,2.2-5.4,5.5-5.4c3.5,0,5.8,2.5,5.8,5.9C637.6,583.4,634.7,585.9,629.5,585.9z M631.9,583.2
		c2,0,3.6-1.7,3.6-3.5v-0.2c0-1.8-1.4-3.4-3.6-3.4c-2.2,0-3.6,1.6-3.6,3.4v0.2C628.3,581.6,629.9,583.2,631.9,583.2z"/>
</g>
<g>
	<path d="M728.7,542h-16.8v-2.3h13.4l-3.7-3.8h2.9l4.2,4.3V542z"/>
	<path d="M720.8,557.5c-5.4,0-9.2-3.3-9.2-7.1c0-2.9,1.6-4.9,4.3-5.4v2.4c-1.3,0.4-2.3,1.3-2.3,2.8v0.3c0,2.6,2.7,4.6,6.7,4.9
		c-1.7-0.8-2.8-2.6-2.8-4.6c0-3,2.2-5.4,5.5-5.4c3.5,0,5.8,2.5,5.8,5.9C728.9,555,726,557.5,720.8,557.5z M723.2,554.8
		c2,0,3.6-1.7,3.6-3.5v-0.2c0-1.8-1.4-3.4-3.6-3.4c-2.2,0-3.6,1.6-3.6,3.4v0.2C719.7,553.2,721.2,554.8,723.2,554.8z"/>
	<path d="M717.4,572c-3.5,0-5.8-2.5-5.8-5.9c0-3.7,2.9-6.2,8.1-6.2c5.4,0,9.2,3.3,9.2,7.1c0,2.9-1.6,4.9-4.3,5.4V570
		c1.3-0.4,2.3-1.3,2.3-2.8v-0.3c0-2.6-2.7-4.6-6.7-4.9c1.7,0.8,2.8,2.6,2.8,4.6C722.9,569.6,720.7,572,717.4,572z M717.3,569.6
		c2.2,0,3.6-1.6,3.6-3.4V566c0-1.8-1.5-3.5-3.6-3.5c-2,0-3.6,1.7-3.6,3.5v0.2C713.7,568.1,715.1,569.6,717.3,569.6z"/>
	<path d="M728.7,580.1h-16.8v-2.3h13.4l-3.7-3.8h2.9l4.2,4.3V580.1z"/>
</g>
<g>
	<path d="M683.1,542h-16.8v-2.3h13.4l-3.7-3.8h2.9l4.2,4.3V542z"/>
	<path d="M675.2,557.5c-5.4,0-9.2-3.3-9.2-7.1c0-2.9,1.6-4.9,4.3-5.4v2.4c-1.3,0.4-2.3,1.3-2.3,2.8v0.3c0,2.6,2.7,4.6,6.7,4.9
		c-1.7-0.8-2.8-2.6-2.8-4.6c0-3,2.2-5.4,5.5-5.4c3.5,0,5.8,2.5,5.8,5.9C683.3,555,680.4,557.5,675.2,557.5z M677.7,554.8
		c2,0,3.6-1.7,3.6-3.5v-0.2c0-1.8-1.4-3.4-3.6-3.4c-2.2,0-3.6,1.6-3.6,3.4v0.2C674.1,553.2,675.6,554.8,677.7,554.8z"/>
	<path d="M671.8,572c-3.5,0-5.8-2.5-5.8-5.9c0-3.7,2.9-6.2,8.1-6.2c5.4,0,9.2,3.3,9.2,7.1c0,2.9-1.6,4.9-4.3,5.4V570
		c1.3-0.4,2.3-1.3,2.3-2.8v-0.3c0-2.6-2.7-4.6-6.7-4.9c1.7,0.8,2.8,2.6,2.8,4.6C677.3,569.6,675.2,572,671.8,572z M671.7,569.6
		c2.2,0,3.6-1.6,3.6-3.4V566c0-1.8-1.5-3.5-3.6-3.5c-2,0-3.6,1.7-3.6,3.5v0.2C668.1,568.1,669.5,569.6,671.7,569.6z"/>
	<path d="M674.7,574.5c5.6,0,8.6,2.4,8.6,6.6s-3,6.6-8.6,6.6s-8.6-2.4-8.6-6.6S669,574.5,674.7,574.5z M668.1,581.3
		c0,1.8,1.4,4.1,6.6,4.1s6.6-2.3,6.6-4.1V581c0-1.8-1.4-4.1-6.6-4.1s-6.6,2.3-6.6,4.1V581.3z"/>
</g>
<g>
	<path d="M774.2,542h-16.8v-2.3h13.4l-3.7-3.8h2.9l4.2,4.3V542z"/>
	<path d="M766.4,557.5c-5.4,0-9.2-3.3-9.2-7.1c0-2.9,1.6-4.9,4.3-5.4v2.4c-1.3,0.4-2.3,1.3-2.3,2.8v0.3c0,2.6,2.7,4.6,6.7,4.9
		c-1.7-0.8-2.8-2.6-2.8-4.6c0-3,2.2-5.4,5.5-5.4c3.5,0,5.8,2.5,5.8,5.9C774.5,555,771.5,557.5,766.4,557.5z M768.8,554.8
		c2,0,3.6-1.7,3.6-3.5v-0.2c0-1.8-1.4-3.4-3.6-3.4c-2.2,0-3.6,1.6-3.6,3.4v0.2C765.2,553.2,766.7,554.8,768.8,554.8z"/>
	<path d="M762.9,572c-3.5,0-5.8-2.5-5.8-5.9c0-3.7,2.9-6.2,8.1-6.2c5.4,0,9.2,3.3,9.2,7.1c0,2.9-1.6,4.9-4.3,5.4V570
		c1.3-0.4,2.3-1.3,2.3-2.8v-0.3c0-2.6-2.7-4.6-6.7-4.9c1.7,0.8,2.8,2.6,2.8,4.6C768.5,569.6,766.3,572,762.9,572z M762.8,569.6
		c2.2,0,3.6-1.6,3.6-3.4V566c0-1.8-1.5-3.5-3.6-3.5c-2,0-3.6,1.7-3.6,3.5v0.2C759.2,568.1,760.7,569.6,762.8,569.6z"/>
	<path d="M759.6,585.8h-2.2v-11.4h2.5l5.2,5.4c1.4,1.5,2.7,3.3,4.7,3.3c1.6,0,2.6-1.2,2.6-2.8v-0.2c0-1.8-1.4-3.1-3.2-3.1v-2.4
		c3.2,0,5.3,2.4,5.3,5.6c0,2.9-1.6,5.3-4.5,5.3c-2.7,0-4.4-2-6.2-3.9l-4.2-4.5V585.8z"/>
</g>
<rect x="8.3" y="446.7" class="st11" width="20.7" height="18.6"/>
<rect x="9.3" y="447.2" class="st12" width="33.3" height="18"/>
<text transform="matrix(1 0 0 1 9.256 457.7301)"><tspan x="0" y="0" class="st13 st14">2</tspan><tspan x="8.2" y="0" class="st13 st14">0</tspan></text>
<rect x="8.3" y="368.8" class="st11" width="20.7" height="18.6"/>
<rect x="9.3" y="369.6" class="st12" width="33.3" height="18"/>
<text transform="matrix(1 0 0 1 9.256 380.0741)"><tspan x="0" y="0" class="st13 st14">4</tspan><tspan x="8.7" y="0" class="st13 st14">0</tspan></text>
<rect x="8.3" y="294.8" class="st11" width="20.7" height="18.6"/>
<rect x="9.3" y="295.8" class="st12" width="33.3" height="18"/>
<text transform="matrix(1 0 0 1 9.256 306.2939)"><tspan x="0" y="0" class="st13 st14">6</tspan><tspan x="8.8" y="0" class="st13 st14">0</tspan></text>
<rect x="8.3" y="219.2" class="st11" width="20.7" height="18.6"/>
<rect x="9.3" y="220.4" class="st12" width="33.3" height="18"/>
<text transform="matrix(1 0 0 1 9.256 230.9273)" class="st13 st14">80</text>
<rect x="8.3" y="143.6" class="st11" width="28.2" height="18.6"/>
<rect x="9.3" y="145.1" class="st12" width="33.3" height="18"/>
<text transform="matrix(1 0 0 1 9.256 155.5607)" class="st13 st14">100</text>
<rect x="8.3" y="70.2" class="st11" width="28.2" height="18.6"/>
<rect x="9.3" y="71.8" class="st12" width="33.3" height="18"/>
<text transform="matrix(1 0 0 1 9.256 82.3171)" class="st13 st14">120</text>
</svg>
